<svg width="1879" height="1184" fill="none" xmlns="http://www.w3.org/2000/svg"><path d="M255.859 1174.06a42.156 42.156 0 0018.778-7.54c5.555-4 10.056-9.29 13.115-15.41a62.914 62.914 0 0113.254 10.22 47.842 47.842 0 01-17.829 16.83 49.481 49.481 0 01-15.962 5.51 1.82 1.82 0 01-.735 0c-.887-.15-1.836-1.37-2.525-1.96-1.148-.96-2.234-1.98-3.336-3.06a50.666 50.666 0 01-4.591-5.02M1412.86 36.107a9 9 0 110-18 9 9 0 010 18z" fill="#EFBFC0"/><path d="M1865.59 272.397c-7.33 0-13.27-5.94-13.27-13.268s5.94-13.269 13.27-13.269c7.33 0 13.27 5.941 13.27 13.269s-5.94 13.268-13.27 13.268z" fill="#CCA9D0"/><path d="M1179.92 847.294c-7.33 0-13.27-5.94-13.27-13.268s5.94-13.268 13.27-13.268c7.33 0 13.27 5.94 13.27 13.268s-5.94 13.268-13.27 13.268z" fill="#EFBFC0"/><path d="M1114.01 609.094c-8.11 0-14.68-6.571-14.68-14.677 0-8.105 6.57-14.676 14.68-14.676 8.1 0 14.67 6.571 14.67 14.676 0 8.106-6.57 14.677-14.67 14.677zm514.35-305.987c-3.04 0-5.5-2.686-5.5-6 0-3.313 2.46-6 5.5-6s5.5 2.687 5.5 6c0 3.314-2.46 6-5.5 6z" fill="#C4DFF6"/><path d="M1722.9 442.727a42.274 42.274 0 01-31.9-22.956 62.963 62.963 0 00-13.25 10.223 47.894 47.894 0 0017.83 16.834 49.664 49.664 0 0015.96 5.51c.24.046.49.046.74 0 .88-.153 1.83-1.378 2.52-1.959 1.15-.964 2.24-1.99 3.34-3.061a51.683 51.683 0 004.59-5.019" fill="#EFBFC0"/><path d="M1758.51 25.411a45.72 45.72 0 0020.29-8.14A45.703 45.703 0 001792.98.635a68.52 68.52 0 0114.32 11.034 51.712 51.712 0 01-19.27 18.226 53.564 53.564 0 01-17.2 5.969c-.26.046-.53.046-.79 0-.97-.168-1.98-1.53-2.73-2.112-1.24-1.056-2.42-2.158-3.6-3.275a58.255 58.255 0 01-5.12-5.402" fill="#C4DFF6"/><path d="M1112.23 420.782a45.736 45.736 0 0020.29-8.141 45.586 45.586 0 0014.17-16.636 67.73 67.73 0 0114.31 11.034 51.646 51.646 0 01-19.25 18.242 53.997 53.997 0 01-17.26 5.953c-.26.054-.53.054-.8 0-.96-.168-1.99-1.53-2.72-2.112-1.24-1.041-2.42-2.158-3.6-3.275a58.165 58.165 0 01-5.03-5.417m542.03 559.242l-.28-3.244c-.24-2.831-.55-5.632-.69-8.478a84.607 84.607 0 0016.23-4.744 51.114 51.114 0 0021.62-17.079 37.365 37.365 0 005.34-12.243c.22-.827 1.06-2.908.78-3.719a159.038 159.038 0 015.53 19.023c.45 1.402.67 2.871.65 4.346a15.05 15.05 0 01-2.11 4.193 52.486 52.486 0 01-10.31 12.09 77.246 77.246 0 01-12.25 9.289 60.851 60.851 0 01-18.77 7.652c-1.66.352-3.39.643-5.18.903l-.21-3.535c-.2-1.439-.2-2.954-.35-4.454z" fill="#CCA9D0"/><path d="M1187.59 1062.86l-2.54-1.24c-2.22-1.08-4.41-2.2-6.66-3.21a53.047 53.047 0 01-10.35 15.3c-7.65 7.66-20.32 10.3-30.71 9.08-.75-.09-2.69 0-3.28-.54 4.37 3.77 8.97 7.26 13.78 10.46 1.15.9 2.46 1.57 3.87 1.97 1.65.27 3.34.27 4.99 0 3.56-.59 7.02-1.69 10.27-3.26a55.902 55.902 0 0027.1-25.6l-2.8-1.27c-1.27-.58-2.49-1.12-3.67-1.69z" fill="#EFBFC0"/><path d="M1844.97 536.186c.54 1.046 1.23 2.01 2.04 2.862.4.367.21.658.78.642.51-.01 1.03-.061 1.53-.153 2.45-.459 4.78-2.479 6.57-4.162a22.923 22.923 0 004.69-6.382 27.223 27.223 0 002.58-15.304c0 .291 12.42 8.463 13.77 9.78.49 7.651-5.53 14.967-12 18.93a25.08 25.08 0 01-8.86 3.52c-2.87.312-5.78.146-8.6-.49a40.567 40.567 0 01-15.44-5.815 20.22 20.22 0 01-8.71-12.381c1.07-.138 2.22-.459 3.29-.612 2.77-.367 5.52-.872 8.28-1.423 2.34-.459 4.76-.903 7.12-1.224a3.52 3.52 0 00-.11.642c-.22 4.084.86 8.132 3.07 11.57z" fill="#CCA9D0"/><path d="M1826.59 526.666c-1.07.153-2.22.475-3.29.613a20.214 20.214 0 008.74 12.38 40.523 40.523 0 0015.43 5.816c2.82.643 5.74.809 8.61.489h.34a24.41 24.41 0 01-8.77-6.305 7.439 7.439 0 01-1.19-1.209 16.541 16.541 0 01-1.43-2.127 20.234 20.234 0 01-3.06-12.243" fill="#B28AB8"/><path d="M1322.63 104.055c.44.788 1 1.514 1.67 2.156.33.276.18.495.64.484.42-.008.84-.047 1.26-.115 2-.346 3.91-1.868 5.38-3.136a17.391 17.391 0 003.85-4.808c1.91-3.573 2.64-7.579 2.11-11.529 0 .22 10.19 6.376 11.3 7.367.4 5.765-4.53 11.276-9.84 14.262a21.758 21.758 0 01-7.27 2.651c-2.36.235-4.74.11-7.05-.369-4.51-.648-8.82-2.14-12.67-4.381-3.6-2.145-6.16-5.487-7.14-9.326.88-.104 1.82-.346 2.7-.462 2.27-.276 4.53-.657 6.79-1.072 1.92-.346 3.9-.68 5.84-.922-.05.159-.08.32-.09.484-.18 3.077.7 6.126 2.52 8.716z" fill="#CCA9D0"/><path d="M1307.56 96.884c-.88.115-1.82.357-2.7.461.98 3.845 3.55 7.19 7.16 9.327 3.85 2.241 8.16 3.732 12.66 4.381 2.31.485 4.7.609 7.06.369h.28c-2.76-1.07-5.21-2.693-7.19-4.75-.37-.268-.7-.574-.98-.911a11.61 11.61 0 01-1.17-1.602c-1.89-2.749-2.77-5.982-2.51-9.224" fill="#B28AB8"/><path d="M1499.34 1119.06c-1.03.89-2.18 1.64-3.41 2.22-.59.21-.52.59-1.12.33-.53-.23-1.04-.5-1.53-.81-2.42-1.53-4.03-4.7-5.2-7.27a26.11 26.11 0 01-2.27-8.81c-.43-6.08.92-12.16 3.89-17.48-.17.31-16.91 3.67-18.89 4.52-3.79 7.86-.56 18.36 4.59 25.32 2.13 3.02 4.82 5.59 7.93 7.58 2.93 1.58 6.1 2.65 9.38 3.18a46.541 46.541 0 0018.95.46 23.291 23.291 0 0014.63-9.46c-1.09-.61-2.17-1.44-3.25-2.06-2.8-1.53-5.52-3.31-8.21-5.07-2.28-1.53-4.69-3.06-7.06-4.39-.03.25-.08.49-.15.73-1.54 4.45-4.43 8.3-8.28 11.01z" fill="#C4DFF6"/><path d="M1523.03 1116.84c1.09.61 2.16 1.44 3.24 2.05-3.46 4.93-8.7 8.32-14.61 9.46-6.28 1.14-12.73.99-18.95-.45a30.34 30.34 0 01-9.39-3.19l-.34-.23a28.11 28.11 0 0012.07-2.94 8.53 8.53 0 001.81-.78c.85-.49 1.65-1.05 2.42-1.66a27.01 27.01 0 006.88-7.94c.62-1.21 1.13-2.48 1.53-3.78" fill="#A3C9E5"/><path d="M1503.86 839.808a2.64 2.64 0 01.82-1.832c.25-.236.55-.421.87-.544.32-.123.66-.181 1-.172l5.16.134-.72-.753a.878.878 0 01-.44-.081.896.896 0 01-.35-.279l-1.77-2.342a2.591 2.591 0 01-.61-1.828c.03-.666.32-1.292.81-1.751.24-.238.54-.424.86-.549a2.58 2.58 0 011-.175c.35.009.69.085 1 .226.32.14.6.341.83.591l6.83 7.158 8.98.248-3.65-6.89-7.21-2.207a.898.898 0 01-.31 1.233.89.89 0 01-.67.111.862.862 0 01-.56-.395l-1.93-2.507v-.051a2.534 2.534 0 01-.48-1.112 2.48 2.48 0 01.08-1.209c.19-.622.62-1.148 1.19-1.473a2.6 2.6 0 011.87-.28l4.46 1.351-2.7-5.105a2.632 2.632 0 01-.22-1.982c.2-.663.64-1.223 1.25-1.556a2.698 2.698 0 011.53-.289c.53-.062 1.06.037 1.53.284.47.247.85.63 1.09 1.098l2 3.775 1.12-3.682a2.606 2.606 0 011.27-1.554c.3-.163.63-.265.97-.299a2.595 2.595 0 012.47 1.214l1.71 2.155a.87.87 0 01.2.324.941.941 0 01-.31 1.021.87.87 0 01-.34.165.89.89 0 01-.37.016.855.855 0 01-.35-.136.898.898 0 01-.27-.265l-.18-.248-2.38 7.849 4.21 7.972 4.27-6.673-2.14-9.767a2.636 2.636 0 01.36-1.955c.38-.579.96-.988 1.63-1.139.11-.028.22-.045.33-.051h.11c.53-.118 1.1-.063 1.6.157.51.221.93.595 1.21 1.07a.09.09 0 000 .072l1.48 2.568a.908.908 0 01-.34 1.248.85.85 0 01-.18.083l.22 1.031 2.88-4.507c.26-.417.64-.749 1.09-.959.45-.21.94-.289 1.43-.227.49 0 .97.143 1.38.412.24.149.45.333.62.547l.11.113 1.63 2.424c.07.099.12.211.14.329a.72.72 0 010 .357.804.804 0 01-.13.331c-.07.1-.15.185-.25.252a.936.936 0 01-.69.142.936.936 0 01-.58-.379l-.19-.279-2.52 3.961 4.03-.908c.22-.051.45-.072.68-.062a2.629 2.629 0 011.57.206c.48.229.89.604 1.16 1.073l.06.082 1.49 2.517a.7.7 0 01.12.337c.02.119.01.24-.02.356a.799.799 0 01-.16.32.82.82 0 01-.27.235.859.859 0 01-.33.118.921.921 0 01-.92-.448l-.27-.474c-.36.397-.84.674-1.36.794l-3.33.742-6.04 1.362c-.24.433-.6.79-1.03 1.031l-4.12 6.446 8.17.227 7.79-7.055c.49-.447 1.14-.69 1.8-.679.67.012 1.3.277 1.78.741.11.075.21.173.29.289l1.84 3.001c.08.103.13.219.16.343.03.124.03.253 0 .378a.881.881 0 01-.14.348.981.981 0 01-.27.26.929.929 0 01-1.31-.369l-.4-.65c-.09.152-.21.294-.34.423l-3.09 3.197 5.23.144c.21 0 .42.031.62.093.38.078.74.238 1.05.47.3.232.56.529.74.871l1.32 1.96c.13.201.18.447.13.685a.913.913 0 01-1.4.589.955.955 0 01-.25-.253v-.062c-.25.325-.57.588-.93.767-.37.179-.77.27-1.18.264l-6.06-.165 3.97 3.96c.07.083.14.155.2.238.05.04.08.085.12.134l1.33 1.98c.12.193.17.426.13.654a.888.888 0 01-.34.574.914.914 0 01-1.24-.104l-.2.227a2.62 2.62 0 01-3.7 0l-.41-.412-.21-.176-7.39-7.292-8.07-.226 3.91 7.384 8.75 2.878c.62.166 1.16.555 1.51 1.093l1.76 2.506c.09.096.15.208.19.329.03.121.05.249.03.375a.77.77 0 01-.12.357.79.79 0 01-.25.281.905.905 0 01-.71.161.856.856 0 01-.35-.147.89.89 0 01-.26-.273l-.48-.66a2.62 2.62 0 01-2.8 1.031l-3.72-1.031 2.37 4.332c.33.607.41 1.322.22 1.987a2.599 2.599 0 01-1.25 1.561c-.24.124-.5.211-.77.258l.45.556c.15.191.22.433.2.675a.931.931 0 01-.65.78.92.92 0 01-.7-.072c-.1-.057-.19-.134-.27-.227l-2.03-2.424-.07-.093a2.783 2.783 0 01-.36-.526l-2.68-5.054-1.23 4.559c-.11.406-.31.779-.6 1.087-.28.309-.64.545-1.04.687l.62.774c.16.188.23.43.2.672a.89.89 0 01-.33.617.922.922 0 01-1.29-.134l-1.98-2.445a.967.967 0 01-.16-.319 2.655 2.655 0 01-.48-2.311l2.69-9.973-3.36-6.343-4.79 7.581 1.87 9.282c.15.624.07 1.284-.22 1.855-.3.57-.8 1.011-1.4 1.239l.52.681c.08.094.14.202.17.319.03.116.04.238.03.358a.874.874 0 01-.35.612.926.926 0 01-.68.185.944.944 0 01-.34-.114c-.1-.06-.19-.14-.27-.236l-1.83-2.352-.06-.103c-.31-.322-.53-.72-.64-1.155l-1.03-3.991-2.61 4.125c-.35.557-.9.959-1.54 1.124l.31.403c.09.093.16.205.2.326.04.122.06.251.05.379a.926.926 0 01-.71.817.898.898 0 01-.73-.14c-.1-.074-.19-.169-.26-.279l-1.71-2.248a2.549 2.549 0 01-.71-1.555c-.06-.584.08-1.17.4-1.663l3.18-5.002-4.46 1.145.47.608c.08.094.15.205.19.327.05.121.06.25.05.379a.938.938 0 01-.11.365.805.805 0 01-.25.289.907.907 0 01-1.08.022c-.1-.073-.19-.168-.26-.278l-1.78-2.341-.08-.124c-.26-.297-.45-.65-.56-1.032a2.604 2.604 0 01.29-1.984c.35-.597.93-1.03 1.6-1.203l10.12-2.599 4.59-7.219-8.62-.237-7.09 6.755c-.27.256-.58.453-.93.578l.31.402a.83.83 0 01.18.324c.04.12.06.246.04.371a.891.891 0 01-.11.356.895.895 0 01-.58.445.924.924 0 01-.72-.12.982.982 0 01-.26-.262l-1.78-2.341a2.646 2.646 0 01-.54-1.8c.05-.647.34-1.251.81-1.697l3.32-3.176-4.56-.124.21.289a.91.91 0 01.18.675.954.954 0 01-.35.603.952.952 0 01-.33.159.905.905 0 01-.69-.095.82.82 0 01-.27-.239l-1.74-2.3c-.26-.25-.45-.549-.59-.879-.13-.33-.19-.684-.19-1.039z" fill="#FAD6D8"/><path d="M1550.2 853.658c.63.167 1.17.556 1.52 1.093l1.83 2.558c.09.096.15.208.19.329.03.121.05.249.03.375a.9.9 0 01-.11.358.938.938 0 01-.26.28.905.905 0 01-.71.161.905.905 0 01-.61-.42l-.48-.66a2.628 2.628 0 01-2.8 1.032l-.56-.155c-1.94-.918-4.02-1.609-5.61-3.032-.8-.766-1.52-1.617-2.13-2.538a3.3 3.3 0 01-.72-1.162c-.15-.434-.2-.896-.16-1.354a1.873 1.873 0 011.03-1.166l.79 1.475 8.76 2.826z" fill="#FAD6D8"/><path d="M1559.23 835.897a.904.904 0 01-.69.115.915.915 0 01-.33-.15.829.829 0 01-.24-.264l-.41-.649c-.09.152-.21.294-.34.422l-3.09 3.198h2.06c-.4.433-.79.887-1.22 1.279a9.191 9.191 0 01-5.16 2.062c-1.87.138-3.76.079-5.62-.175l-4.03-.299c-.4.004-.78-.131-1.09-.382-.2-.229-.31-.523-.3-.825a3.04 3.04 0 01.7-2.062l6.54.175 7.79-7.055a2.608 2.608 0 013.58.062c.11.075.21.173.29.289l1.84 3.001a.92.92 0 01.12.686.885.885 0 01-.4.572z" fill="#E8A6A9"/><path d="M1531.91 832.69l1.32 2.496 4.27-6.673-2.22-9.767a2.636 2.636 0 01.36-1.955c.38-.579.96-.988 1.63-1.139.11-.028.22-.045.33-.051h.1c.54-.118 1.1-.063 1.61.157.5.221.93.595 1.21 1.07a.09.09 0 000 .072l1.48 2.568c.12.211.15.461.09.694a.945.945 0 01-.61.637l.22 1.031.64-1.031c.08.891.11 1.786.09 2.681.04 1.51-.07 3.02-.33 4.507-.85 4.332-3.78 7.921-6.61 11.345a.876.876 0 01-.63.403.833.833 0 01-.5-.32c-1.31-1.362-2.61-2.96-2.74-4.848a5.7 5.7 0 01.29-1.877zm-18.54 20.256l10.12-2.599 4.12-6.498c.18-.01.36-.01.54 0 2.06 0 5.52.63 3.82 3.28a60.937 60.937 0 01-6.19 8.086c-.31.398-.71.719-1.17.939-.61.15-1.24.15-1.85 0-2.12-.239-4.27-.05-6.32.557-.76.187-1.46.539-2.06 1.031-.45.385-.74.915-.83 1.496l-1.44-1.898-.08-.124a2.63 2.63 0 01-.58-1.183c-.09-.437-.07-.89.06-1.316.13-.426.37-.811.7-1.119a2.57 2.57 0 011.15-.642l.01-.01z" fill="#FAD6D8"/><path d="M1550.64 820.882a.92.92 0 01-1.27-.237l-.18-.279-2.53 3.961.95-.217-.61.898c-.72 1.031-1.66 2.217-2.95 2.3a.952.952 0 01-.67-.155c-.14-.133-.24-.3-.31-.485a14.53 14.53 0 01-1.41-5.208l.09.35 2.87-4.507a2.62 2.62 0 011.09-.959c.45-.21.95-.289 1.44-.227.49 0 .97.143 1.38.413.23.148.44.333.61.546l.11.114 1.64 2.424c.06.099.11.211.14.328.02.118.02.24 0 .358a.937.937 0 01-.39.582zm-8.94-.206c.06-.448.16-.889.29-1.321v.073c.13.204.17.449.11.682a.914.914 0 01-.4.566z" fill="#FAD6D8"/><path d="M1533.73 865.003a2.651 2.651 0 01-.48-2.31l2.69-9.974-2.21-4.197c.7-.609.75-.176 1.32.319 1.15 1.032 2.25 2.29 3.31 3.425a6.956 6.956 0 012.37 3.906 7.016 7.016 0 01-.57 4.53l-.64-1.196-1.23 4.559c-.11.405-.31.778-.6 1.087-.29.309-.64.544-1.04.686l.62.774c.16.189.23.431.2.672a.886.886 0 01-.33.617.916.916 0 01-1.29-.134l-1.98-2.444a1.206 1.206 0 01-.14-.32zm-20.93-11.809c.19-.107.4-.191.62-.248l10.06-2.589c.68.846 2.06 2.599 2.2 2.723h.15l-10.53 3.62-2.5-3.506z" fill="#E8A6A9"/><path d="M1539.53 831.226l-4.78 7.612-2.65-2.579c-.1-.247-.2-.515-.28-.773l.91-1.207.47.908 4.27-6.673 2.06 2.712z" fill="#FAD6D8"/><path d="M1523.67 828.225l-5.34-2.444-2.23-2.785c.12.018.25.045.37.083l4.46 1.351 2.74 3.795zm15.88 3.259l-2.12-2.898v-.072l-2.15-9.767a3.215 3.215 0 01-.06-.619l2.35 4.631 1.98 8.725zm-20.3 6.126l8.82.237-2.51-4.744 1.39-.062 4.12 8.334-9.39-.609-2.43-3.156z" fill="#E8A6A9"/><path d="M1505.84 842.374a2.645 2.645 0 01.82-1.831c.25-.237.54-.422.87-.545.32-.122.66-.181 1-.171l5.15.144-3.18-3.341a2.595 2.595 0 01-.72-1.869c.01-.694.3-1.354.8-1.834s1.18-.741 1.87-.725c.69.015 1.35.306 1.83.808l6.82 7.168 9 .247-3.65-6.889-9.44-2.878a2.628 2.628 0 01-.9-.48 2.63 2.63 0 01-.64-.788 2.42 2.42 0 01-.3-.976c-.03-.342 0-.687.1-1.015.2-.66.66-1.213 1.27-1.54.6-.326 1.32-.399 1.98-.203l4.42 1.341-2.7-5.106a2.66 2.66 0 01-.19-1.995c.21-.663.67-1.218 1.28-1.542a2.612 2.612 0 013.54 1.083l2.39 4.517 1.34-4.424c.1-.33.26-.636.48-.901.22-.266.49-.486.79-.648.3-.162.63-.262.98-.296.34-.033.68.001 1.01.102.33.1.64.264.9.482.27.219.49.488.65.791.16.304.26.636.3.979.03.342-.01.688-.11 1.017l-2.87 9.468 4.12 7.756 4.6-7.22-2.18-9.746a2.629 2.629 0 011.98-3.094 2.616 2.616 0 013.09 1.99l1.03 4.672 3.19-4.991c.18-.29.42-.54.7-.737.28-.197.6-.336.94-.41a2.602 2.602 0 011.96.352c.29.185.54.425.74.706.2.282.34.599.41.934.07.336.08.682.02 1.02-.06.338-.19.661-.37.95l-2.69 4.291 4.39-1.032a2.602 2.602 0 011.95.354c.58.371.99.955 1.14 1.627.14.672.02 1.375-.35 1.954-.38.58-.96.989-1.63 1.14l-9.49 2.207-4.75 7.436 8.63.237.57-.505 2.76-2.496 4.01-3.651a2.616 2.616 0 013.64.041c.48.478.76 1.125.78 1.804.01.679-.24 1.338-.7 1.837l-3.09 3.187 5.23.144c.69.032 1.33.332 1.8.836.47.503.72 1.17.7 1.856-.01.344-.09.682-.22.996a2.61 2.61 0 01-2.46 1.551l-5.93-.164 3.45 3.403c.46.492.72 1.148.72 1.827a2.67 2.67 0 01-.75 1.816 2.614 2.614 0 01-3.64.091l-7.44-7.344-8.68-.247 3.81 7.219 9.5 3.094c.67.182 1.24.621 1.59 1.222.35.602.44 1.316.26 1.986a2.633 2.633 0 01-3.22 1.846l-4.43-1.196 2.43 4.589c.17.309.28.648.31.998.04.35 0 .703-.11 1.039-.1.335-.28.645-.5.912-.23.267-.51.485-.83.64-.3.163-.63.263-.98.296-.34.034-.68-.001-1.01-.102-.33-.1-.63-.265-.9-.484a2.659 2.659 0 01-.64-.792l-2.68-5.065-1.23 4.559a2.613 2.613 0 01-2.2 1.893 2.57 2.57 0 01-1.01-.078 2.52 2.52 0 01-.92-.451c-.27-.209-.5-.47-.67-.768a2.771 2.771 0 01-.33-.969c-.04-.341-.02-.687.07-1.019l2.69-9.974-3.5-6.611-4.76 7.457 1.93 9.695a2.6 2.6 0 01-.28 1.984 2.607 2.607 0 01-3.58.919 2.651 2.651 0 01-1.21-1.603l-1.11-4.342-2.76 4.424c-.19.29-.43.541-.71.737a2.602 2.602 0 01-1.96.43c-.33-.06-.66-.187-.95-.373a2.629 2.629 0 01-1.14-1.641 2.624 2.624 0 01.35-1.969l3.19-5.002-4.7 1.207a2.613 2.613 0 01-3.18-1.887 2.648 2.648 0 01.28-1.985 2.63 2.63 0 011.61-1.202l10.12-2.599 4.63-7.22-8.61-.237-7.14 6.807c-.25.238-.54.425-.87.549a2.613 2.613 0 01-2-.05c-.31-.14-.6-.342-.83-.592a2.606 2.606 0 01-.72-1.87c.02-.694.31-1.352.81-1.833l3.38-3.217-5.77-.155c-.35-.004-.7-.079-1.02-.22a2.76 2.76 0 01-.86-.602 2.77 2.77 0 01-.55-.888c-.12-.33-.17-.682-.16-1.034z" fill="#EFBFC0"/><path d="M1416.86 257.32c.01-.309.08-.614.2-.897.13-.282.31-.537.54-.75.22-.213.49-.379.77-.49.29-.11.6-.163.91-.154l4.64.121-.65-.677a.853.853 0 01-.71-.325l-1.59-2.105a2.301 2.301 0 01-.55-1.645c.03-.598.29-1.161.73-1.574.22-.214.48-.382.77-.494.29-.111.6-.165.91-.157.31.008.61.076.89.203.29.126.54.307.75.532l6.14 6.436 8.09.223-3.28-6.196-6.49-1.984c.1.184.14.403.08.611a.807.807 0 01-.97.597.788.788 0 01-.5-.355l-1.74-2.254v-.046a2.3 2.3 0 01-.43-1c-.07-.363-.04-.736.07-1.087.18-.56.56-1.033 1.07-1.325a2.337 2.337 0 011.68-.252l4.02 1.215-2.43-4.591a2.308 2.308 0 01-.19-1.782c.17-.597.57-1.1 1.12-1.399.42-.221.9-.311 1.38-.26.47-.056.95.033 1.37.255.42.222.76.566.99.988l1.79 3.395 1.02-3.312c.08-.296.23-.572.42-.812.2-.24.44-.439.71-.585a2.369 2.369 0 011.8-.179c.54.164 1 .52 1.3 1.001l1.54 1.939c.08.084.14.183.18.291.03.108.05.222.04.335a.756.756 0 01-.1.325c-.05.1-.13.188-.22.258a.81.81 0 01-.64.163.777.777 0 01-.31-.123.748.748 0 01-.24-.238l-.17-.223-2.14 7.058 3.79 7.17 3.84-6.001-1.92-8.783a2.365 2.365 0 01.32-1.759c.34-.52.87-.888 1.47-1.024.1-.025.2-.041.3-.046h.09c.48-.106.99-.057 1.44.142.46.198.84.534 1.09.962v.064l1.34 2.31a.9.9 0 01.08.624.841.841 0 01-.56.572l.21.928 2.59-4.053c.23-.375.57-.674.98-.863.4-.189.85-.26 1.29-.204.44 0 .87.129 1.24.371.21.133.4.299.56.492l.09.102 1.47 2.179c.07.09.11.19.13.296.02.106.02.215 0 .321a.802.802 0 01-.35.524.817.817 0 01-.61.128.834.834 0 01-.53-.341l-.17-.251-2.27 3.562 3.63-.816c.2-.046.41-.065.61-.056.48-.085.97-.02 1.41.186.44.206.81.542 1.05.964l.05.074 1.35 2.263c.05.093.09.196.1.303.02.107.01.216-.02.321a.648.648 0 01-.14.287.687.687 0 01-.24.212.83.83 0 01-.63.086.886.886 0 01-.29-.141 1.029 1.029 0 01-.21-.242l-.24-.427c-.33.357-.75.607-1.22.714l-3 .668-5.44 1.225c-.21.389-.53.71-.92.927l-3.71 5.797 7.35.204 7.01-6.344a2.374 2.374 0 011.62-.611c.6.01 1.17.249 1.6.666.11.067.19.156.26.26l1.66 2.699c.07.092.12.197.14.309.03.111.03.227.01.339a.882.882 0 01-.13.313.87.87 0 01-.25.234.81.81 0 01-.32.115.833.833 0 01-.64-.182.925.925 0 01-.21-.265l-.36-.585c-.09.138-.19.265-.31.381l-2.78 2.875 4.7.13c.2 0 .39.028.57.083.34.07.66.214.94.423.27.208.5.476.66.783l1.19 1.762c.12.181.17.403.12.616a.81.81 0 01-.96.652.864.864 0 01-.3-.122.784.784 0 01-.22-.228v-.055a2.335 2.335 0 01-1.9.927l-5.46-.148 3.57 3.561c.07.075.13.14.19.214.04.036.07.076.1.12l1.2 1.781c.11.174.16.384.12.588a.789.789 0 01-.31.517.817.817 0 01-1.11-.094l-.19.204a2.35 2.35 0 01-1.66.689c-.63 0-1.22-.248-1.67-.689l-.37-.371-.18-.157-6.65-6.558-7.27-.204 3.52 6.641 7.87 2.588c.56.149 1.05.499 1.37.983l1.58 2.254c.08.086.13.186.17.295.03.109.04.224.03.337a.896.896 0 01-.1.322.895.895 0 01-.23.252.822.822 0 01-.65.145.807.807 0 01-.54-.378l-.44-.593c-.27.391-.66.69-1.11.856-.45.165-.94.19-1.4.071l-3.35-.927 2.13 3.895c.3.547.37 1.189.2 1.787a2.392 2.392 0 01-1.12 1.404c-.22.112-.46.19-.7.232l.41.501c.13.171.2.389.17.606a.806.806 0 01-.3.553.805.805 0 01-.6.179.879.879 0 01-.31-.095.897.897 0 01-.24-.205l-1.83-2.179-.06-.084a2.334 2.334 0 01-.33-.473l-2.41-4.544-1.1 4.099c-.1.365-.29.7-.55.978a2.27 2.27 0 01-.93.617l.56.696c.14.17.2.387.18.605a.853.853 0 01-.3.554.836.836 0 01-.61.18.84.84 0 01-.55-.3l-1.78-2.198a.82.82 0 01-.15-.288 2.42 2.42 0 01-.46-.989c-.07-.36-.06-.733.03-1.088l2.42-8.969-3.02-5.704-4.31 6.817 1.68 8.347a2.41 2.41 0 01-.2 1.668c-.27.513-.72.909-1.26 1.115l.47.612a.79.79 0 01.15.287c.03.104.04.214.03.322-.02.108-.05.212-.1.307a.88.88 0 01-.22.243.733.733 0 01-.29.144.795.795 0 01-.32.022.748.748 0 01-.3-.102.826.826 0 01-.25-.212l-1.65-2.115-.05-.093a2.32 2.32 0 01-.58-1.039l-.93-3.589-2.34 3.71c-.32.501-.81.863-1.38 1.011l.27.362c.08.084.14.184.18.293.04.11.06.226.05.341a.932.932 0 01-.1.329.942.942 0 01-.23.26.819.819 0 01-.65.153.838.838 0 01-.32-.133.878.878 0 01-.23-.251l-1.54-2.022a2.311 2.311 0 01-.64-1.398c-.05-.525.07-1.052.36-1.496l2.86-4.498-4.01 1.03.42.547c.08.084.14.184.17.294.04.109.06.225.05.34a.932.932 0 01-.1.329.795.795 0 01-.23.26c-.09.07-.19.12-.31.146a.796.796 0 01-.34.007.89.89 0 01-.32-.133.878.878 0 01-.23-.251l-1.61-2.105-.07-.111a2.235 2.235 0 01-.5-.928 2.367 2.367 0 01.25-1.784c.32-.538.84-.927 1.45-1.082l9.1-2.337 4.14-6.493-7.76-.213-6.38 6.075c-.24.23-.53.408-.84.52l.28.361c.07.085.13.185.16.292a.76.76 0 01.04.334.736.736 0 01-.1.32.764.764 0 01-.22.254.804.804 0 01-.3.145.848.848 0 01-.34.014.871.871 0 01-.31-.121.87.87 0 01-.24-.236l-1.59-2.105a2.362 2.362 0 01-.49-1.619c.04-.581.3-1.125.73-1.526l2.98-2.856-4.1-.112.19.26c.13.174.19.392.16.607a.842.842 0 01-.61.685.795.795 0 01-.32.02.857.857 0 01-.31-.105.938.938 0 01-.24-.215l-1.56-2.068a2.323 2.323 0 01-.7-1.725z" fill="#FAD6D8"/><path d="M1458.57 269.775c.56.15 1.04.499 1.36.983l1.65 2.3a.85.85 0 01.17.296c.03.109.04.224.03.337a.903.903 0 01-.1.322.838.838 0 01-.88.396.79.79 0 01-.31-.131.872.872 0 01-.23-.246l-.44-.594a2.35 2.35 0 01-2.51.928l-.51-.139c-1.75-.826-3.62-1.447-5.05-2.727a14.03 14.03 0 01-1.92-2.282c-.28-.298-.5-.654-.64-1.045-.14-.39-.19-.806-.15-1.218a1.685 1.685 0 01.93-1.048l.71 1.327 7.89 2.541z" fill="#FAD6D8"/><path d="M1466.69 253.804a.797.797 0 01-.62.103.83.83 0 01-.3-.134 1.025 1.025 0 01-.22-.238l-.36-.584a2.67 2.67 0 01-.3.38l-2.79 2.875h1.86c-.36.39-.72.798-1.11 1.15a8.204 8.204 0 01-4.63 1.855c-1.69.124-3.39.071-5.07-.157l-3.62-.269c-.36.004-.71-.118-.99-.343a1.178 1.178 0 01-.27-.742c-.02-.675.21-1.334.64-1.855l5.88.157 7.02-6.344a2.34 2.34 0 011.62-.611c.6.011 1.17.249 1.6.667.1.067.19.155.25.26l1.67 2.699a.831.831 0 01-.26 1.131z" fill="#E8A6A9"/><path d="M1442.11 250.92l1.18 2.245 3.84-6.001-1.99-8.784a2.363 2.363 0 01.32-1.758 2.36 2.36 0 011.47-1.024c.1-.025.19-.041.29-.047h.1a2.35 2.35 0 011.44.142c.46.198.84.535 1.09.962v.065l1.34 2.31c.1.189.13.414.07.624a.79.79 0 01-.38.498.649.649 0 01-.17.074l.21.928.57-.928c.07.802.1 1.607.08 2.412.04 1.357-.06 2.715-.29 4.053-.77 3.895-3.41 7.123-5.96 10.202a.736.736 0 01-.24.244.808.808 0 01-.32.118.777.777 0 01-.46-.288c-1.17-1.224-2.34-2.662-2.45-4.359a4.85 4.85 0 01.26-1.688zm-16.7 18.215l9.11-2.338 3.71-5.843c.16-.009.33-.009.49 0 1.86 0 4.96.566 3.43 2.95a55.215 55.215 0 01-5.56 7.271c-.29.358-.65.647-1.06.844-.55.135-1.12.135-1.66 0a14.44 14.44 0 00-5.7.501c-.67.169-1.31.485-1.85.927-.4.347-.66.823-.74 1.345l-1.3-1.706-.08-.112a2.362 2.362 0 01.17-3.253c.29-.277.64-.476 1.03-.577l.01-.009z" fill="#FAD6D8"/><path d="M1458.96 240.301a.821.821 0 01-.61.127.806.806 0 01-.53-.341l-.17-.25-2.27 3.561.85-.194-.54.807c-.65.927-1.5 1.994-2.66 2.068a.846.846 0 01-.6-.139c-.13-.12-.22-.27-.28-.436a13.167 13.167 0 01-1.27-4.684l.08.315 2.58-4.053c.24-.375.58-.674.99-.863.4-.188.85-.259 1.29-.203.44-.001.87.128 1.24.371.21.133.4.299.56.491l.09.102 1.47 2.18c.06.089.11.189.13.295.02.106.02.216 0 .322a.802.802 0 01-.35.524zm-8.04-.187c.05-.402.14-.8.26-1.187v.065c.11.184.14.404.1.614a.838.838 0 01-.36.508z" fill="#FAD6D8"/><path d="M1443.74 279.978a2.42 2.42 0 01-.46-.989c-.07-.36-.06-.733.03-1.088l2.42-8.969-1.99-3.775c.63-.547.68-.158 1.19.287 1.03.928 2.03 2.059 2.98 3.08a6.21 6.21 0 012.13 3.512 6.297 6.297 0 01-.51 4.074l-.58-1.075-1.1 4.099c-.1.365-.29.7-.55.978a2.27 2.27 0 01-.93.617l.56.696a.826.826 0 01-.12 1.159.836.836 0 01-.61.18.84.84 0 01-.55-.3l-1.78-2.198a.789.789 0 01-.13-.288zm-18.84-10.62c.18-.096.36-.171.56-.222l9.05-2.328c.61.76 1.86 2.337 1.99 2.448h.13l-9.47 3.256-2.26-3.154z" fill="#E8A6A9"/><path d="M1448.96 249.602l-4.3 6.845-2.39-2.318c-.09-.223-.17-.464-.25-.696l.82-1.085.43.816 3.84-6.001 1.85 2.439z" fill="#FAD6D8"/><path d="M1434.69 246.905l-4.81-2.199-2.01-2.504c.11.016.22.041.33.074l4.02 1.215 2.47 3.414zm14.29 2.93l-1.91-2.606v-.065l-1.93-8.783c-.04-.183-.05-.37-.06-.557l2.12 4.165 1.78 7.846zm-18.27 5.509l7.94.213-2.27-4.266 1.26-.056 3.71 7.495-8.45-.548-2.19-2.838z" fill="#E8A6A9"/><path d="M1418.64 259.629c.01-.31.08-.614.2-.897.13-.283.31-.538.54-.75.22-.213.49-.379.77-.49.29-.11.6-.163.91-.154l4.64.13-2.87-3.005a2.379 2.379 0 01-.65-1.681c.01-.624.28-1.217.73-1.649a2.341 2.341 0 011.68-.652c.62.014 1.21.275 1.65.726l6.14 6.446 8.09.223-3.28-6.196-8.5-2.588a2.401 2.401 0 01-.81-.431 2.548 2.548 0 01-.58-.709c-.14-.272-.23-.57-.26-.878a2.344 2.344 0 011.23-2.297 2.342 2.342 0 011.78-.183l3.98 1.206-2.43-4.591a2.349 2.349 0 01.98-3.182 2.338 2.338 0 012.6.262c.24.197.44.439.58.712l2.15 4.063 1.21-3.979c.09-.296.24-.572.43-.811.2-.239.44-.436.71-.582.28-.146.58-.236.88-.266.31-.03.62.001.92.091a2.334 2.334 0 011.39 1.146 2.354 2.354 0 01.18 1.794l-2.59 8.515 3.71 6.975 4.14-6.493-1.96-8.765a2.356 2.356 0 011.78-2.782 2.356 2.356 0 011.76.324c.52.335.89.862 1.02 1.466l.93 4.201 2.87-4.489c.16-.26.38-.485.63-.662a2.345 2.345 0 013.27.583c.18.253.31.538.37.84.07.302.08.613.02.917-.05.304-.17.595-.33.854l-2.42 3.859 3.95-.928c.6-.13 1.23-.015 1.75.318.53.334.89.859 1.03 1.463.13.605.01 1.237-.32 1.758-.33.521-.86.889-1.46 1.025l-8.54 1.984-4.28 6.688 7.77.213.51-.455 2.49-2.244 3.61-3.283a2.349 2.349 0 013.27.037c.44.429.69 1.011.7 1.622.01.611-.21 1.203-.63 1.652l-2.78 2.866 4.71.13c.62.028 1.2.298 1.62.751.42.453.65 1.052.63 1.669-.01.309-.08.614-.2.896-.13.283-.31.538-.53.751-.23.213-.49.379-.78.49-.29.11-.59.163-.9.154l-5.34-.148 3.1 3.061c.42.442.66 1.032.65 1.643a2.33 2.33 0 01-.68 1.632 2.35 2.35 0 01-3.27.082l-6.7-6.604-7.81-.222 3.44 6.492 8.55 2.783a2.37 2.37 0 011.66 2.884 2.363 2.363 0 01-1.11 1.427c-.54.312-1.18.395-1.79.233l-3.98-1.076 2.18 4.128c.16.277.25.583.28.897.03.315 0 .633-.1.934-.09.301-.25.581-.45.821-.21.24-.46.435-.75.575a2.322 2.322 0 01-1.79.175 2.432 2.432 0 01-.81-.436 2.409 2.409 0 01-.58-.712l-2.41-4.554-1.1 4.099c-.09.298-.23.576-.42.819a2.316 2.316 0 01-1.56.883 2.36 2.36 0 01-.92-.069 2.374 2.374 0 01-1.43-1.097 2.436 2.436 0 01-.29-.871c-.04-.307-.02-.619.06-.917l2.42-8.969-3.15-5.945-4.28 6.706 1.74 8.718c.15.605.06 1.247-.26 1.785-.31.537-.83.926-1.44 1.081-.6.155-1.25.063-1.78-.255a2.325 2.325 0 01-1.08-1.442l-1.01-3.905-2.48 3.979c-.17.261-.38.486-.64.663a2.345 2.345 0 01-1.76.387c-.31-.055-.6-.169-.86-.336a2.346 2.346 0 01-1.02-1.476 2.302 2.302 0 01.31-1.77l2.87-4.498-4.23 1.085c-.6.155-1.24.063-1.78-.256a2.323 2.323 0 01-1.08-1.442 2.368 2.368 0 01.25-1.784c.32-.537.84-.926 1.45-1.082l9.1-2.337 4.18-6.492-7.76-.214-6.42 6.122a2.36 2.36 0 01-2.58.449 2.385 2.385 0 01-1.4-2.215c.02-.623.28-1.215.73-1.647l3.04-2.894-5.19-.139a2.356 2.356 0 01-1.69-.739c-.22-.23-.39-.502-.5-.799a2.444 2.444 0 01-.14-.929z" fill="#EFBFC0"/><path d="M1348.75 972.955a2.924 2.924 0 01.94-2.068c.28-.266.61-.473.98-.609.36-.137.75-.199 1.14-.185l5.74.168-.81-.857a1.05 1.05 0 01-.89-.398l-1.99-2.632a2.931 2.931 0 01-.68-2.047 2.93 2.93 0 01.9-1.962 2.932 2.932 0 012.1-.805c.78.02 1.52.348 2.06.912l7.65 8.034 10.1.276-4.1-7.729-8.16-2.479c.11.229.13.49.06.733-.08.242-.24.449-.45.58a1.05 1.05 0 01-.73.13 1.004 1.004 0 01-.62-.387l-2.16-2.801a3.044 3.044 0 01-.46-2.616c.23-.742.74-1.364 1.43-1.73a2.945 2.945 0 012.23-.229l5.02 1.53-3.06-5.724a2.961 2.961 0 01-.21-2.241c.23-.746.74-1.37 1.43-1.738.8-.348 1.7-.417 2.55-.195.84.222 1.59.722 2.12 1.42l2.23 4.224 1.26-4.117c.11-.37.3-.715.54-1.014.25-.299.55-.546.89-.728a2.94 2.94 0 012.24-.217 2.92 2.92 0 011.62 1.24l1.87 2.418c.17.217.24.491.21.762-.04.271-.18.517-.4.684-.22.166-.49.24-.76.204a1.058 1.058 0 01-.69-.395l-.19-.261-2.68 8.8 4.74 8.937 4.79-7.483-2.45-10.942a3.149 3.149 0 01-.03-1.145c.07-.38.21-.744.41-1.069.21-.326.48-.608.79-.829.32-.222.68-.379 1.05-.462h.49a2.928 2.928 0 011.8.186c.57.25 1.04.672 1.35 1.207l1.67 2.892c.13.236.17.514.1.775a1.04 1.04 0 01-.48.618.547.547 0 01-.21.092l.26 1.193 3.19-5.218a3.367 3.367 0 012.03-1.272 3.396 3.396 0 012.37.399c.25.171.48.377.68.613l.11.137 1.85 2.709c.16.228.21.507.16.776a1.032 1.032 0 01-1.2.826 1.02 1.02 0 01-.37-.153 1.026 1.026 0 01-.29-.286l-.21-.306-2.83 4.438 4.59-1.025c.25-.03.51-.03.77 0a2.951 2.951 0 013.06 1.423v.107l1.63 2.847c.14.235.17.514.1.775a1 1 0 01-.48.617.937.937 0 01-.38.129c-.13.018-.27.009-.4-.027a.94.94 0 01-.35-.18.899.899 0 01-.26-.304l-.31-.536a2.97 2.97 0 01-1.53.888l-3.73.841-6.8 1.531c-.26.511-.67.932-1.18 1.209l-4.59 7.238 9.19.245 8.73-7.912a2.942 2.942 0 012.03-.765c.75.014 1.47.316 2 .842.13.083.24.192.32.321l1.99 3.352c.07.114.12.242.14.375.02.133.02.269-.01.401-.03.131-.09.255-.17.365a.858.858 0 01-.29.274.982.982 0 01-.37.142 1.03 1.03 0 01-.4-.013 1.002 1.002 0 01-.64-.458l-.45-.734c-.11.173-.24.337-.38.489l-3.54 3.566 5.87.168c.23.004.47.04.7.108a2.9 2.9 0 011.21.524c.36.265.65.61.86 1.006l1.53 2.204c.14.225.19.498.14.76-.06.262-.21.493-.43.643-.22.15-.5.207-.76.159a1.01 1.01 0 01-.65-.415v-.076c-.29.347-.66.626-1.07.817-.41.19-.85.288-1.31.285l-6.81-.184 4.46 4.438c.08.084.16.177.23.276l.12.137 1.53 2.235a1 1 0 01.16.77.857.857 0 01-.15.371 1.04 1.04 0 01-.99.452 1.004 1.004 0 01-.64-.338l-.23.26c-.27.273-.6.49-.95.638-.36.148-.74.225-1.12.225-.39 0-.77-.077-1.13-.225a2.97 2.97 0 01-.95-.638l-.46-.459a1.86 1.86 0 01-.23-.215l-8.29-8.172-9.06-.245 4.38 8.264 9.82 3.245c.7.183 1.3.619 1.7 1.224l2.08 2.847c.09.107.15.232.19.366.04.134.05.274.03.412a.916.916 0 01-.13.391 1.042 1.042 0 01-.65.479c-.14.031-.28.034-.42.009a.955.955 0 01-.38-.155.911.911 0 01-.29-.293l-.54-.735a2.957 2.957 0 01-3.14 1.102l-4.17-1.133 2.61 4.943c.19.34.3.712.34 1.095.03.383 0 .77-.12 1.138-.11.37-.29.71-.54 1.01-.24.3-.55.54-.89.72-.27.14-.56.25-.87.31l.51.62c.12.1.22.22.29.35.07.14.11.29.11.45.01.15-.02.3-.09.44a.984.984 0 01-.68.58c-.15.03-.3.04-.45.01-.15-.03-.3-.1-.42-.19a.991.991 0 01-.29-.35l-2.24-2.74v-.11c-.17-.17-.31-.37-.41-.59l-3.06-5.666-1.38 5.116c-.12.45-.35.87-.67 1.22-.32.35-.72.61-1.17.77l.71.87a1.031 1.031 0 01-.15 1.44c-.11.08-.23.15-.36.19-.13.03-.26.05-.4.03a.89.89 0 01-.38-.12.833.833 0 01-.3-.26l-2.22-2.74a.94.94 0 01-.2-.35c-.28-.36-.48-.78-.57-1.23-.09-.449-.07-.913.05-1.355l3.06-11.187-3.77-7.116-5.41 8.479 2.08 10.452a2.952 2.952 0 01-1.81 3.487l.6.77c.16.21.23.49.2.75-.03.27-.17.52-.38.69-.11.08-.23.14-.36.17-.13.04-.27.05-.4.03-.13-.02-.26-.06-.38-.13a.833.833 0 01-.3-.26l-2.07-2.65-.08-.1c-.34-.36-.59-.81-.71-1.29l-1.15-4.482-2.93 4.592c-.39.62-1.01 1.07-1.72 1.25l.35.46c.16.22.23.49.2.76-.04.27-.18.52-.4.68-.22.17-.49.24-.76.2-.27-.04-.52-.18-.68-.4l-1.93-2.52c-.45-.48-.73-1.1-.79-1.75-.06-.654.1-1.31.45-1.864l3.39-5.678-5.01 1.286.51.673c.08.107.14.229.18.358.03.13.04.266.02.4-.01.133-.06.262-.12.379-.07.117-.16.219-.27.302a.899.899 0 01-.36.18.992.992 0 01-.4.025 1.06 1.06 0 01-.38-.133c-.11-.07-.21-.162-.29-.271l-2.01-2.617-.09-.153c-.3-.343-.52-.752-.63-1.194a2.984 2.984 0 01.32-2.225c.4-.67 1.04-1.158 1.79-1.356l11.37-2.908 5.16-8.049-9.69-.276-7.95 7.652c-.3.29-.65.509-1.04.643l.35.459c.16.217.23.491.2.76a1.028 1.028 0 01-1.16.877 1.02 1.02 0 01-.68-.397l-1.99-2.617a2.927 2.927 0 01-.61-2.015c.05-.725.37-1.403.9-1.903l3.74-3.566-5.13-.138.24.322c.16.218.23.491.2.76-.04.268-.18.512-.4.678a1.03 1.03 0 01-1.43-.199l-1.96-2.586a2.852 2.852 0 01-.65-1.03 2.907 2.907 0 01-.18-1.204z" fill="#B0C2DD"/><path d="M1400.77 988.502c.7.183 1.3.62 1.7 1.225l2.08 2.846a1.02 1.02 0 01.22.779c-.02.138-.06.271-.13.391a1.05 1.05 0 01-.66.478 1.008 1.008 0 01-.79-.145.904.904 0 01-.29-.294l-.54-.734a2.95 2.95 0 01-3.14 1.101l-.64-.168a25.493 25.493 0 01-6.29-3.413 18.42 18.42 0 01-2.39-2.831 3.58 3.58 0 01-.98-2.831c.08-.289.23-.556.42-.784.2-.227.44-.409.72-.532l.87 1.653 9.84 3.259z" fill="#C3CEEB"/><path d="M1410.9 968.577c-.23.142-.51.186-.78.123s-.5-.228-.64-.46l-.45-.735c-.11.174-.24.337-.38.49l-3.54 3.566h2.29c-.46.489-.89.994-1.38 1.438a10.216 10.216 0 01-5.79 2.357c-2.11.14-4.22.074-6.32-.199l-4.41-.459a1.91 1.91 0 01-1.22-.428c-.22-.254-.35-.58-.35-.919a3.54 3.54 0 01.79-2.295l7.35.199 8.74-7.912a2.916 2.916 0 014.02.076c.13.083.24.193.32.322l2.04 3.412a1 1 0 01.14.771c-.05.266-.21.5-.43.653z" fill="#8FA5C6"/><path d="M1380.2 964.98l1.53 2.8 4.79-7.483-2.45-10.942a3.149 3.149 0 01-.03-1.145c.07-.38.21-.744.41-1.069.21-.326.48-.608.79-.829.32-.222.68-.379 1.05-.462h.49a2.928 2.928 0 011.8.186c.57.25 1.04.672 1.35 1.207l1.67 2.892c.14.236.17.514.1.775a1.04 1.04 0 01-.48.618.547.547 0 01-.21.092l.26 1.193.72-1.132c.08 1.017.12 2.039.1 3.061.05 1.691-.07 3.383-.37 5.05-.96 4.866-4.25 8.891-7.43 12.686-.19.23-.42.475-.71.444a.922.922 0 01-.55-.352 9.218 9.218 0 01-3.06-5.432 6.29 6.29 0 01.23-2.158zm-20.74 22.711l11.37-2.907 4.6-7.285c.2-.016.4-.016.61 0 2.26 0 6.12.719 4.27 3.688a67.84 67.84 0 01-6.98 9.06c-.35.455-.81.817-1.33 1.056-.68.169-1.38.169-2.05 0a17.786 17.786 0 00-7.12.627c-.83.203-1.6.584-2.26 1.118a2.731 2.731 0 00-.94 1.683l-1.62-2.127-.09-.153c-.3-.343-.52-.752-.63-1.194a2.956 2.956 0 012.17-3.566z" fill="#C3CEEB"/><path d="M1401.26 951.743a.998.998 0 01-1.14.01.975.975 0 01-.28-.285l-.22-.306-2.83 4.438 1.07-.245-.69 1.01a4.762 4.762 0 01-1.37 1.668c-.57.447-1.24.761-1.95.918-.26.033-.53-.033-.75-.183a1.338 1.338 0 01-.34-.551 16.169 16.169 0 01-1.53-5.831l.08.398 3.18-5.127a3.371 3.371 0 014.4-.872c.25.17.49.377.69.612l.1.138 1.85 2.708c.09.115.15.246.18.386a.87.87 0 01.01.424.956.956 0 01-.16.394c-.08.118-.18.219-.3.296zm-10.04-.246c.06-.52.17-1.032.33-1.53v.092c.08.115.13.245.15.381a1.028 1.028 0 01-.48 1.057z" fill="#C3CEEB"/><path d="M1382.27 1001.22c-.29-.36-.48-.78-.57-1.231a2.83 2.83 0 01.05-1.356l3.06-11.187-2.5-4.713c.8-.674.86-.199 1.53.367 1.29 1.148 2.54 2.556 3.72 3.826a7.789 7.789 0 012.67 4.382c.37 1.72.15 3.514-.63 5.091l-.72-1.347-1.38 5.108c-.12.46-.35.88-.67 1.23-.32.34-.72.61-1.17.76l.71.88c.17.21.25.48.22.75s-.17.51-.38.68c-.1.09-.22.15-.35.19-.13.04-.26.06-.4.04a.89.89 0 01-.38-.12.833.833 0 01-.3-.26l-2.22-2.74c-.12-.1-.22-.21-.29-.35zm-23.5-13.253c.23-.111.46-.203.69-.276l11.31-2.892c.75.949 2.31 2.908 2.47 3.061h.16l-11.81 4.07-2.82-3.963z" fill="#8FA5C6"/><path d="M1388.79 963.328l-5.38 8.539-2.97-2.877a6.802 6.802 0 01-.3-.887l1.01-1.347.53 1.025 4.79-7.483 2.32 3.03z" fill="#C3CEEB"/><path d="M1371.03 959.901l-6-2.74-2.51-3.06.42.091 5.02 1.531 3.07 4.178zm17.79 3.717l-2.41-3.244-2.44-10.942a2.293 2.293 0 01-.08-.689l2.63 5.203 2.3 9.672zm-20.48 10.269l-2.51-3.397 10.02.275-2.84-5.371.9-.689 4.48 9.657s-9.61.03-10.05-.475z" fill="#8FA5C6"/><path d="M1350.97 975.847c.01-.39.1-.774.26-1.13.16-.355.39-.676.67-.942a2.947 2.947 0 012.13-.79l5.72.169-3.65-3.765a3.058 3.058 0 01-.63-.964 2.904 2.904 0 01-.2-1.129c.01-.386.1-.767.25-1.119.16-.353.39-.671.67-.935a2.941 2.941 0 012.09-.81c.39.01.77.096 1.12.253.35.158.67.383.94.664l7.65 8.034 10.08.276-4.08-7.744-10.59-3.214c-.37-.11-.72-.292-1.02-.536a3 3 0 01-.72-.885c-.19-.34-.3-.712-.34-1.096-.03-.384 0-.772.12-1.14a2.934 2.934 0 013.66-1.959l5 1.53-3.06-5.723a3.02 3.02 0 01-.33-1.097c-.04-.384 0-.772.12-1.14.11-.368.3-.711.54-1.007a2.973 2.973 0 011.99-1.05 2.942 2.942 0 012.15.663c.29.247.54.55.72.891l2.69 5.066 1.53-4.974c.11-.368.3-.711.54-1.008.25-.297.55-.543.89-.723a2.902 2.902 0 012.23-.213c.37.104.72.281 1.02.522.31.24.56.539.75.878.18.339.3.712.34 1.098.04.385.01.774-.11 1.145l-3.21 10.621 4.59 8.707 5.16-8.08-2.45-10.942a3.16 3.16 0 01-.03-1.147c.07-.38.21-.743.42-1.068.21-.326.48-.607.79-.828.32-.222.68-.378 1.05-.462a2.93 2.93 0 012.21.386 2.93 2.93 0 011.3 1.833l1.16 5.25 3.58-5.602a2.947 2.947 0 014.06-.887c.65.42 1.11 1.084 1.28 1.844.17.76.02 1.556-.39 2.211l-3.07 4.79 4.93-1.102a2.93 2.93 0 012.21.386 2.93 2.93 0 011.3 1.833c.17.761.03 1.558-.39 2.217a2.925 2.925 0 01-1.83 1.303l-10.71 2.388-5.35 8.355 9.72.261.61-.567 3.07-2.8 4.48-4.086a2.938 2.938 0 014.94.826c.15.372.22.771.21 1.172-.01.401-.1.796-.27 1.16-.16.365-.4.691-.7.958l-3.52 3.582 5.86.168c.39.012.77.1 1.13.261.35.16.67.389.94.674.26.284.47.619.61.983.13.365.19.753.18 1.143a2.918 2.918 0 01-.94 2.062 2.914 2.914 0 01-2.12.784l-6.64-.184 3.87 3.826c.28.27.5.593.66.95.15.358.24.742.24 1.131s-.07.776-.21 1.137c-.15.36-.37.689-.64.965a2.94 2.94 0 01-3.23.644 2.97 2.97 0 01-.95-.649l-8.34-8.233-9.74-.276 4.27 8.081 10.72 3.504c.37.101.72.275 1.02.511a2.887 2.887 0 011.12 1.955c.05.384.02.773-.08 1.146-.21.748-.7 1.384-1.37 1.77-.68.387-1.47.493-2.22.296l-4.99-1.347 2.74 5.153a2.958 2.958 0 01-1.23 3.97c-.34.18-.71.29-1.1.33-.38.03-.77-.01-1.13-.12a2.865 2.865 0 01-1.73-1.44l-3.06-5.658-1.38 5.108c-.21.75-.7 1.39-1.37 1.77-.68.39-1.48.5-2.23.3-.75-.21-1.39-.7-1.78-1.38-.39-.67-.5-1.48-.3-2.23l3.06-11.174-3.93-7.423-5.34 8.371 2.17 10.866c.19.75.08 1.55-.32 2.23-.39.67-1.04 1.15-1.79 1.35-.76.19-1.56.07-2.23-.32-.67-.4-1.16-1.05-1.35-1.81l-1.26-4.863-3.15 4.963c-.42.65-1.08 1.11-1.84 1.28-.76.16-1.56.02-2.21-.4a2.872 2.872 0 01-1.29-1.84c-.17-.76-.03-1.55.38-2.21l3.6-5.649-5.26 1.347c-.76.19-1.56.075-2.22-.321a2.918 2.918 0 01-1.35-1.791c-.1-.374-.12-.763-.07-1.146.06-.382.19-.75.38-1.083a2.962 2.962 0 011.8-1.352l11.36-2.908 5.2-8.142-9.67-.275-8.01 7.652c-.56.533-1.32.823-2.1.806a2.974 2.974 0 01-2.06-.898 2.973 2.973 0 01-.8-2.103c.02-.78.34-1.521.91-2.06l3.79-3.596-6.48-.184a2.923 2.923 0 01-2.79-3.03z" fill="#DCE5F5"/><path d="M466.859 46.107a9 9 0 009-9 9 9 0 10-9 9z" fill="#EFBFC0"/><path d="M14.128 282.397c7.328 0 13.268-5.94 13.268-13.268s-5.94-13.269-13.268-13.269S.859 261.801.859 269.129s5.94 13.268 13.269 13.268z" fill="#CCA9D0"/><path d="M699.8 857.294c7.328 0 13.268-5.94 13.268-13.268s-5.94-13.268-13.268-13.268-13.269 5.94-13.269 13.268 5.941 13.268 13.269 13.268z" fill="#EFBFC0"/><path d="M765.715 619.094c8.106 0 14.677-6.571 14.677-14.677 0-8.105-6.571-14.676-14.677-14.676-8.105 0-14.676 6.571-14.676 14.676 0 8.106 6.571 14.677 14.676 14.677zm76.644-546.987c3.038 0 5.5-2.686 5.5-6 0-3.313-2.462-6-5.5-6-3.037 0-5.5 2.687-5.5 6 0 3.314 2.463 6 5.5 6zm585.001 571c3.04 0 5.5-2.686 5.5-6 0-3.313-2.46-6-5.5-6s-5.5 2.687-5.5 6c0 3.314 2.46 6 5.5 6z" fill="#C4DFF6"/><path d="M954.859 60.19a26.365 26.365 0 0011.646-4.628 26.004 26.004 0 008.135-9.455 38.963 38.963 0 018.219 6.272 29.567 29.567 0 01-11.057 10.327 30.988 30.988 0 01-9.9 3.38 1.24 1.24 0 01-.456 0c-.55-.094-1.138-.845-1.566-1.201a38.924 38.924 0 01-2.069-1.878 31.775 31.775 0 01-2.847-3.08m-798.144 392.8a42.257 42.257 0 0031.893-22.956 62.961 62.961 0 0113.254 10.223 47.884 47.884 0 01-17.829 16.834 49.6 49.6 0 01-15.962 5.51 1.975 1.975 0 01-.735 0c-.887-.153-1.836-1.378-2.525-1.959-1.148-.964-2.234-1.99-3.336-3.061a51.566 51.566 0 01-4.591-5.019" fill="#EFBFC0"/><path d="M121.208 35.411a45.664 45.664 0 01-34.464-24.776A68.361 68.361 0 0072.42 21.669a51.712 51.712 0 0019.267 18.226 53.558 53.558 0 0017.202 5.969c.263.046.532.046.796 0 .964-.168 1.974-1.53 2.724-2.112 1.239-1.056 2.418-2.158 3.596-3.275a58.33 58.33 0 005.127-5.402" fill="#C4DFF6"/><path d="M767.488 430.782a45.674 45.674 0 01-34.464-24.777 67.876 67.876 0 00-14.309 11.034 51.712 51.712 0 0019.252 18.242 54.056 54.056 0 0017.263 5.953c.262.054.533.054.796 0 .964-.168 1.989-1.53 2.724-2.112 1.239-1.041 2.418-2.158 3.596-3.275a58.218 58.218 0 005.035-5.417M225.352 989.672l.275-3.244c.245-2.831.551-5.632.689-8.478a84.593 84.593 0 01-16.222-4.744 51.065 51.065 0 01-21.624-17.079 37.221 37.221 0 01-5.341-12.243c-.215-.827-1.056-2.908-.781-3.719a158.096 158.096 0 00-5.525 19.023 13.464 13.464 0 00-.658 4.346 15.247 15.247 0 002.112 4.193 52.679 52.679 0 0010.315 12.09 77.372 77.372 0 0012.243 9.289 60.945 60.945 0 0018.778 7.652c1.653.352 3.382.643 5.173.903 0 0 .198-3.198.214-3.535.199-1.439.199-2.954.352-4.454z" fill="#CCA9D0"/><path d="M692.134 1072.86l2.54-1.24c2.219-1.08 4.408-2.2 6.657-3.21a53.134 53.134 0 0010.346 15.3c7.652 7.66 20.323 10.3 30.714 9.08.75-.09 2.694 0 3.275-.54a139.42 139.42 0 01-13.773 10.46 11.26 11.26 0 01-3.872 1.97c-1.652.27-3.337.27-4.989 0a37.804 37.804 0 01-10.269-3.26 55.908 55.908 0 01-27.103-25.6l2.801-1.27c1.27-.58 2.494-1.12 3.673-1.69z" fill="#EFBFC0"/><path d="M596.164 151.893a6.8 6.8 0 001.411 1.277c.254.141.191.31.48.24.257-.064.509-.147.755-.247 1.227-.515 2.201-1.835 2.935-2.914a12.327 12.327 0 001.721-3.845c.667-2.741.52-5.617-.423-8.276.049.148 7.429 2.977 8.269 3.528 1.115 3.887-1.164 8.402-4.078 11.203a13.057 13.057 0 01-4.233 2.823 13.844 13.844 0 01-4.523.705 21.56 21.56 0 01-8.678-1.263 10.766 10.766 0 01-5.941-5.447c.544-.19 1.101-.486 1.637-.705a71.21 71.21 0 004.142-1.686 72.006 72.006 0 013.527-1.454 2.97 2.97 0 000 .353 10.433 10.433 0 002.999 5.708z" fill="#DCE5F5"/><path d="M585.526 149.071c-.537.197-1.094.494-1.637.705a10.768 10.768 0 005.94 5.447 21.563 21.563 0 008.678 1.263 13.841 13.841 0 004.523-.706l.176-.077a13.009 13.009 0 01-5.284-2.279 3.893 3.893 0 01-.755-.487 8.282 8.282 0 01-.974-.945 12.58 12.58 0 01-2.533-4.156 12.417 12.417 0 01-.437-1.856" fill="#B0C2DD"/><path d="M34.744 546.186a12.339 12.339 0 01-2.035 2.862c-.398.367-.215.658-.78.642a9.585 9.585 0 01-1.531-.153c-2.449-.459-4.775-2.479-6.566-4.162a22.953 22.953 0 01-4.698-6.382 27.165 27.165 0 01-2.57-15.304c0 .291-12.428 8.463-13.774 9.78-.49 7.651 5.524 14.967 11.998 18.93a25.084 25.084 0 008.86 3.52 26.23 26.23 0 008.601-.49 40.598 40.598 0 0015.442-5.815 20.262 20.262 0 008.708-12.381c-1.071-.138-2.22-.459-3.29-.612-2.77-.367-5.525-.872-8.28-1.423-2.341-.459-4.76-.903-7.116-1.224.052.211.088.426.107.642a19.467 19.467 0 01-3.076 11.57z" fill="#CCA9D0"/><path d="M53.126 536.666c1.071.153 2.219.475 3.29.613a20.199 20.199 0 01-8.738 12.38 40.525 40.525 0 01-15.426 5.816 25.918 25.918 0 01-8.617.489H23.3a24.387 24.387 0 008.769-6.305 7.337 7.337 0 001.194-1.209 16.566 16.566 0 001.423-2.127 20.186 20.186 0 003.06-12.243" fill="#B28AB8"/><path d="M104.636 731.806a3.892 3.892 0 00-1.214-2.717 3.88 3.88 0 00-2.78-1.063l-7.652.199 1.071-1.117a1.344 1.344 0 001.163-.536l2.632-3.474a3.87 3.87 0 00-.29-5.31 3.877 3.877 0 00-5.494.138l-10.132 10.62-13.344.368 5.417-10.223 10.713-3.275a1.347 1.347 0 002.295 1.408l2.862-3.719v-.076a3.815 3.815 0 00.597-3.444 3.873 3.873 0 00-4.545-2.601l-6.627 2.004 4.01-7.575a3.872 3.872 0 00-1.53-5.249 4.014 4.014 0 00-2.28-.429 3.878 3.878 0 00-3.888 2.051l-2.969 5.601-1.668-5.463a3.875 3.875 0 00-3.327-2.75 3.87 3.87 0 00-3.667 1.801l-2.54 3.198a1.368 1.368 0 00-.194 1.569 1.366 1.366 0 001.42.695 1.355 1.355 0 00.916-.595l.276-.368 3.535 11.646-6.26 11.83-6.335-9.901 3.168-14.493a3.886 3.886 0 00-2.954-4.591 2.534 2.534 0 00-.49-.077h-.153a3.894 3.894 0 00-4.178 1.822.376.376 0 010 .107l-2.203 3.81a1.362 1.362 0 00.505 1.852c.085.054.178.095.275.123l-.337 1.53-4.27-6.688a3.869 3.869 0 00-3.749-1.76c-.728 0-1.441.213-2.05.612a3.91 3.91 0 00-.919.811l-.153.169-2.433 3.596a1.344 1.344 0 00-.008 1.508 1.365 1.365 0 002.258.023l.275-.414 3.75 5.877-5.984-1.347a3.77 3.77 0 00-1.01-.092 3.888 3.888 0 00-4.056 1.898l-.092.123-2.219 3.734a1.341 1.341 0 00.092 1.503c.108.141.244.26.398.348a1.35 1.35 0 001.035.143 1.345 1.345 0 00.832-.632l.398-.704a3.92 3.92 0 002.02 1.178l4.943 1.102 8.968 2.02a3.941 3.941 0 001.53 1.53l6.122 9.565-12.136.337-11.57-10.468a3.875 3.875 0 00-5.31.092 1.42 1.42 0 00-.428.429l-2.74 4.453a1.359 1.359 0 00-.026 1.585 1.355 1.355 0 001.492.536 1.357 1.357 0 00.845-.698l.597-.964c.146.226.315.437.505.627l4.591 4.745-7.759.214c-.316 0-.63.046-.933.138a3.87 3.87 0 00-2.648 1.989l-1.959 2.908a1.361 1.361 0 001.386 2.092 1.346 1.346 0 00.864-.577v-.092a3.872 3.872 0 003.137 1.53l8.999-.245-5.892 5.877c-.107.122-.214.23-.306.352-.064.059-.12.126-.169.199l-1.974 2.938a1.363 1.363 0 001.252 2.106c.342-.029.66-.185.89-.438l.307.337a3.887 3.887 0 005.494 0l.612-.612.306-.26 10.973-10.82 11.983-.337-5.8 10.958-12.993 4.27a3.902 3.902 0 00-2.25 1.622l-2.617 3.719a1.359 1.359 0 00.223 1.99 1.367 1.367 0 001.067.239 1.364 1.364 0 00.899-.623l.719-.979a3.886 3.886 0 004.147 1.53l5.525-1.53-3.52 6.428a3.886 3.886 0 001.53 5.264c.362.184.749.313 1.148.383l-.673.826a1.361 1.361 0 00.214 1.913 1.353 1.353 0 00.99.295 1.351 1.351 0 00.908-.494l3.014-3.596.108-.138c.207-.239.387-.501.535-.781l3.98-7.498 1.82 6.764a3.884 3.884 0 002.434 2.632l-.919 1.148a1.361 1.361 0 001.197 2.209c.359-.038.688-.216.915-.495l2.939-3.627a1.55 1.55 0 00.245-.474 3.937 3.937 0 00.704-3.428l-3.995-14.799 4.99-9.412 7.116 11.248-2.77 13.774a3.904 3.904 0 002.402 4.591l-.78 1.01a1.351 1.351 0 00-.121 1.511 1.357 1.357 0 00.827.639 1.36 1.36 0 001.436-.482l2.724-3.489.092-.153c.462-.478.789-1.07.95-1.714l1.53-5.923 3.871 6.121a3.827 3.827 0 002.28 1.669l-.459.596a1.367 1.367 0 00-.201 1.59 1.372 1.372 0 00.883.67 1.37 1.37 0 001.089-.208c.157-.11.289-.251.387-.414l2.54-3.336a3.875 3.875 0 00.46-4.775l-4.729-7.422 6.626 1.698-.688.903a1.367 1.367 0 00-.202 1.59 1.372 1.372 0 00.883.67 1.37 1.37 0 001.477-.622l2.647-3.474.123-.184c.388-.44.67-.964.826-1.53a3.886 3.886 0 00-2.8-4.729l-15.029-3.857-6.825-10.712 12.809-.352 10.529 10.024c.393.38.863.672 1.377.857l-.459.597a1.363 1.363 0 102.158 1.653l2.632-3.474a3.873 3.873 0 00-.398-5.188l-4.927-4.714 6.78-.184-.322.429a1.362 1.362 0 001.27 2.165 1.352 1.352 0 00.903-.528l2.586-3.412a3.864 3.864 0 001.148-2.847z" fill="#FAD6D8"/><path d="M35.815 752.357a3.902 3.902 0 00-2.25 1.622l-2.724 3.796a1.357 1.357 0 00-.15 1.574 1.357 1.357 0 00.881.648 1.365 1.365 0 001.458-.615l.719-.98a3.885 3.885 0 004.147 1.531l.842-.23c2.877-1.362 5.968-2.387 8.325-4.499a22.72 22.72 0 003.168-3.765 4.73 4.73 0 001.301-3.734 2.759 2.759 0 00-1.53-1.729l-1.163 2.188-13.024 4.193z" fill="#FAD6D8"/><path d="M22.407 726.005a1.36 1.36 0 001.882-.444l.597-.964c.145.226.315.437.505.627l4.591 4.744h-3.06c.596.643 1.178 1.317 1.82 1.898a13.607 13.607 0 007.652 3.061c2.787.204 5.587.117 8.356-.26l5.984-.444a2.526 2.526 0 001.622-.566 1.85 1.85 0 00.444-1.225 4.59 4.59 0 00-1.04-3.06l-9.719.26-11.57-10.468a3.87 3.87 0 00-5.31.092 1.41 1.41 0 00-.428.428l-2.74 4.454a1.362 1.362 0 00.414 1.867z" fill="#E8A6A9"/><path d="M62.98 721.246l-1.958 3.703-6.336-9.901 3.29-14.493a3.886 3.886 0 00-2.953-4.591 2.533 2.533 0 00-.49-.076h-.153a3.886 3.886 0 00-4.178 1.821.383.383 0 010 .107l-2.204 3.811a1.36 1.36 0 00.505 1.851c.086.054.179.095.276.123l-.337 1.53-.949-1.53a39.283 39.283 0 00-.138 3.979c-.058 2.24.106 4.48.49 6.687 1.27 6.428 5.617 11.754 9.825 16.834a1.3 1.3 0 00.934.597c.3-.061.566-.23.75-.474 1.943-2.02 3.871-4.392 4.055-7.193a8.38 8.38 0 00-.428-2.785zm27.547 30.055L75.5 747.445l-6.121-9.642a7.315 7.315 0 00-.812 0c-3.06 0-8.187.934-5.662 4.867a89.995 89.995 0 009.182 11.998 4.962 4.962 0 001.745 1.393c.9.222 1.84.222 2.74 0a23.778 23.778 0 019.396.826 7.835 7.835 0 013.06 1.53 3.674 3.674 0 011.225 2.219l2.142-2.815.123-.184a3.9 3.9 0 00-.266-5.369 3.912 3.912 0 00-1.708-.952l-.016-.015z" fill="#FAD6D8"/><path d="M35.17 703.724a1.36 1.36 0 001.883-.352l.276-.413 3.749 5.876-1.408-.321.903 1.331c1.071 1.531 2.464 3.291 4.377 3.413.348.052.704-.03.994-.23.212-.197.37-.444.46-.719a21.42 21.42 0 002.096-7.728l-.122.52-4.27-6.688a3.876 3.876 0 00-3.75-1.759 3.727 3.727 0 00-2.05.612 3.89 3.89 0 00-.918.811l-.153.168-2.434 3.596a1.355 1.355 0 00-.21 1.018 1.35 1.35 0 00.578.865zm13.27-.307a11.886 11.886 0 00-.428-1.959v.107a1.363 1.363 0 00.428 1.852z" fill="#FAD6D8"/><path d="M60.284 769.192a3.938 3.938 0 00.704-3.428l-3.994-14.799 3.29-6.229c-1.04-.903-1.117-.26-1.959.475-1.714 1.53-3.351 3.397-4.927 5.081a10.314 10.314 0 00-2.663 12.518l.949-1.775 1.82 6.764a3.884 3.884 0 002.434 2.632l-.918 1.148a1.362 1.362 0 00.199 1.913 1.363 1.363 0 001.913-.199l2.938-3.627c.098-.145.17-.305.214-.474zm31.083-17.524a4.154 4.154 0 00-.918-.367l-14.937-3.841c-1.01 1.255-3.06 3.856-3.275 4.04h-.23l15.641 5.372 3.72-5.204z" fill="#E8A6A9"/><path d="M51.668 719.073l7.1 11.294 3.934-3.826c.153-.367.29-.765.413-1.148l-1.346-1.79-.704 1.346-6.336-9.901-3.061 4.025z" fill="#FAD6D8"/><path d="M75.223 714.619l7.927-3.627 3.32-4.132c-.186.027-.37.068-.55.123l-6.627 2.005-4.07 5.631zm-23.586 4.836l3.152-4.3v-.108l3.183-14.492a4.64 4.64 0 00.092-.918l-3.489 6.871-2.938 12.947zm30.151 9.09l-13.1.352 3.734-7.04-2.066-.091-6.122 12.365 13.942-.903 3.612-4.683z" fill="#E8A6A9"/><path d="M101.697 735.615a3.892 3.892 0 00-1.214-2.717 3.884 3.884 0 00-2.78-1.062l-7.652.214 4.729-4.959a3.887 3.887 0 00-5.617-5.371l-10.13 10.636-13.361.367L71.09 722.5l14.018-4.269a3.87 3.87 0 002.586-4.836 3.885 3.885 0 00-4.82-2.587l-6.566 1.99 4.01-7.576a3.886 3.886 0 00-1.623-5.249 3.866 3.866 0 00-4.293.431 3.873 3.873 0 00-.956 1.176l-3.55 6.703-1.99-6.565a3.886 3.886 0 10-7.437 2.265l4.27 14.049-6.122 11.508-6.825-10.713 3.229-14.462a3.885 3.885 0 00-2.939-4.591 3.89 3.89 0 00-4.59 2.954l-1.531 6.933-4.73-7.408a3.881 3.881 0 00-2.433-1.701 3.88 3.88 0 00-2.923.523 3.883 3.883 0 00-1.7 2.434 3.869 3.869 0 00.522 2.922l3.994 6.367-6.519-1.531a3.87 3.87 0 00-4.591 2.939 3.872 3.872 0 002.938 4.591l14.095 3.275 7.055 11.034-12.825.352-.841-.75-4.102-3.704-5.953-5.417a3.887 3.887 0 00-5.524 5.463l4.59 4.729-7.774.214a3.888 3.888 0 00-3.703 3.995 3.869 3.869 0 002.485 3.525c.476.182.984.269 1.494.255l8.8-.245-5.112 5.05a3.888 3.888 0 005.448 5.54l11.05-10.896 12.885-.368-5.662 10.713-14.11 4.591a3.888 3.888 0 00-2.74 4.76 3.902 3.902 0 004.775 2.739l6.58-1.775-3.61 6.81a3.867 3.867 0 00.459 4.375c.34.396.756.719 1.223.95a3.866 3.866 0 005.25-1.606l3.979-7.515 1.82 6.765a3.875 3.875 0 004.776 2.693 3.877 3.877 0 002.36-1.81 3.872 3.872 0 00.379-2.949l-3.994-14.799 5.203-9.81 7.07 11.065-2.877 14.385a3.889 3.889 0 002.8 4.729 3.885 3.885 0 004.73-2.8l1.652-6.443 4.102 6.565a3.888 3.888 0 005.372 1.179 3.89 3.89 0 001.178-5.357l-4.744-7.422 6.978 1.79a3.885 3.885 0 101.929-7.529l-15.029-3.856-6.886-10.713 12.794-.352 10.605 10.1a3.854 3.854 0 002.776 1.075 3.858 3.858 0 002.718-1.212 3.904 3.904 0 00-.138-5.494l-5.02-4.775 8.57-.23a3.885 3.885 0 003.841-4.071z" fill="#EFBFC0"/><path d="M530.968 982.955a2.962 2.962 0 00-.935-2.068 2.943 2.943 0 00-2.126-.794l-5.739.168.811-.857c.17.013.34-.017.494-.087.155-.069.291-.176.394-.311l1.99-2.632a2.94 2.94 0 00-.215-4.009 2.95 2.95 0 00-4.162.107l-7.652 8.034-10.101.276 4.102-7.729 8.157-2.479a1.026 1.026 0 001.744 1.056l2.158-2.801a3.053 3.053 0 00.459-2.616 2.95 2.95 0 00-3.657-1.959l-5.02 1.53 3.061-5.724a2.956 2.956 0 00-1.225-3.979 3.906 3.906 0 00-4.667 1.225l-2.235 4.224-1.255-4.117a2.932 2.932 0 00-2.529-2.074 2.94 2.94 0 00-2.766 1.355l-1.867 2.418a1.033 1.033 0 001.638 1.255l.199-.261 2.678 8.8-4.744 8.937-4.79-7.483 2.448-10.942a2.917 2.917 0 00-1.17-3.043 2.914 2.914 0 00-1.049-.462h-.49a2.94 2.94 0 00-3.152 1.393l-1.668 2.892a1.028 1.028 0 00.382 1.393.542.542 0 00.215.092l-.261 1.193-3.198-5.218a3.366 3.366 0 00-4.392-.873 3.296 3.296 0 00-.689.613l-.107.137-1.852 2.709a1.04 1.04 0 001.046 1.602c.132-.026.258-.078.371-.153.112-.076.208-.173.282-.286l.214-.306 2.831 4.438-4.591-1.025a3.263 3.263 0 00-.765 0 2.958 2.958 0 00-3.061 1.423v.107l-1.637 2.847a1.027 1.027 0 00.761 1.521 1.02 1.02 0 001.014-.511l.306-.536a2.97 2.97 0 001.531.888l3.734.841 6.794 1.531c.264.511.675.932 1.179 1.209l4.591 7.238-9.182.245-8.739-7.912a2.924 2.924 0 00-4.025.077 1.08 1.08 0 00-.321.321l-1.989 3.352a1.012 1.012 0 00-.129.776 1.03 1.03 0 00.833.781 1.036 1.036 0 00.766-.178 1.02 1.02 0 00.274-.293l.444-.734c.114.173.242.337.383.489l3.535 3.566-5.862.168c-.238.004-.475.04-.704.108a2.904 2.904 0 00-2.066 1.53l-1.53 2.204a1.022 1.022 0 00.289 1.403 1.023 1.023 0 001.41-.256v-.076a3.068 3.068 0 002.372 1.102l6.81-.184-4.453 4.438a1.783 1.783 0 00-.23.276l-.122.137-1.531 2.235a1.015 1.015 0 00-.01 1.141c.075.112.173.208.286.282a1.023 1.023 0 001.346-.168l.23.26a2.93 2.93 0 003.197.638c.356-.148.679-.365.95-.638l.459-.459c.084-.064.161-.136.23-.215l8.295-8.172 9.059-.245-4.376 8.264-9.825 3.245a2.905 2.905 0 00-1.699 1.224l-2.081 2.846a.991.991 0 00-.192.37 1.006 1.006 0 00.103.8c.07.12.165.22.277.31.113.08.241.14.376.17.136.03.277.03.414.01.137-.03.267-.08.383-.16a.896.896 0 00.291-.29l.536-.73c.352.47.839.83 1.399 1.03.559.2 1.165.22 1.738.07l4.178-1.14-2.617 4.95a2.906 2.906 0 00-.219 2.23c.112.37.296.71.541 1.01.246.3.547.54.887.72.275.14.569.25.873.31l-.505.62c-.124.1-.224.22-.295.35-.07.14-.109.29-.113.45a1.057 1.057 0 00.366.81c.118.1.256.17.406.21.149.03.305.04.456.01.152-.03.294-.1.417-.19a.978.978 0 00.293-.35l2.234-2.74v-.11c.169-.17.308-.37.413-.59l3.061-5.67 1.378 5.12a2.9 2.9 0 001.836 1.99l-.704.87a1.027 1.027 0 00.153 1.44c.104.08.224.15.353.19.129.03.265.05.399.03a.873.873 0 00.382-.12.902.902 0 00.305-.26l2.219-2.74c.086-.1.153-.22.199-.35a2.913 2.913 0 00.52-2.58l-3.061-11.192 3.765-7.116 5.418 8.479-2.082 10.449a2.958 2.958 0 001.806 3.49l-.597.77a1.03 1.03 0 00-.2.75c.034.27.172.52.384.69.106.08.228.14.358.17a.9.9 0 00.399.03c.134-.02.263-.06.38-.13a.89.89 0 00.301-.26l2.066-2.65.077-.1c.344-.36.592-.81.719-1.29l1.148-4.48 2.923 4.59c.4.62 1.017 1.07 1.729 1.25l-.352.46a1.032 1.032 0 00.199 1.44c.217.17.491.24.761.2.27-.04.513-.18.678-.4l1.928-2.52c.45-.48.727-1.1.788-1.75a2.947 2.947 0 00-.451-1.86l-3.382-5.68 5.004 1.28-.505.68a.98.98 0 00-.178.36.974.974 0 00-.028.39c.017.14.06.27.127.38.067.12.156.22.263.31.106.08.229.14.359.18.131.03.268.04.402.02s.263-.06.38-.13c.116-.07.217-.16.297-.27l2.005-2.62.092-.15a2.947 2.947 0 00.308-3.422 2.955 2.955 0 00-1.793-1.356l-11.37-2.908-5.158-8.049 9.688-.276 7.958 7.652c.294.29.65.509 1.04.643l-.352.459a1.025 1.025 0 00.199 1.438 1.027 1.027 0 001.439-.198l1.989-2.617a2.922 2.922 0 00-.291-3.918l-3.734-3.566 5.127-.138-.245.322a1.04 1.04 0 00.199 1.438 1.042 1.042 0 001.439-.199l1.959-2.586a2.932 2.932 0 00.826-2.234z" fill="#B0C2DD"/><path d="M478.951 998.502a2.91 2.91 0 00-1.699 1.225l-2.081 2.843a1.09 1.09 0 00-.192.37 1.006 1.006 0 00.103.8c.071.12.165.23.277.31a1.046 1.046 0 00.79.18c.137-.02.267-.08.383-.15.116-.08.215-.18.291-.3l.536-.73c.352.47.839.84 1.399 1.03.56.2 1.165.22 1.738.07l.643-.17a25.531 25.531 0 006.29-3.41 18.454 18.454 0 002.387-2.833 3.575 3.575 0 00.98-2.831 2.054 2.054 0 00-1.133-1.316l-.872 1.653-9.84 3.259z" fill="#C3CEEB"/><path d="M468.819 978.577a1.042 1.042 0 001.423-.337l.444-.735c.114.174.242.337.383.49l3.535 3.566h-2.28c.459.489.887.994 1.377 1.438a10.19 10.19 0 005.785 2.357c2.108.14 4.225.074 6.32-.199l4.408-.459a1.9 1.9 0 001.224-.428c.225-.254.35-.58.352-.919a3.513 3.513 0 00-.796-2.295l-7.345.199-8.739-7.912a2.92 2.92 0 00-4.025.076 1.071 1.071 0 00-.321.322l-2.036 3.412a1.046 1.046 0 00-.144.771c.055.266.211.5.435.653z" fill="#8FA5C6"/><path d="M499.518 974.98l-1.531 2.8-4.79-7.483 2.449-10.942a2.917 2.917 0 00-1.171-3.043 2.917 2.917 0 00-1.048-.462h-.49a2.943 2.943 0 00-3.153 1.393l-1.668 2.892a1.023 1.023 0 00.383 1.393.544.544 0 00.214.092l-.26 1.193-.719-1.132a28.68 28.68 0 00-.107 3.061 25.432 25.432 0 00.367 5.05c.964 4.866 4.254 8.891 7.437 12.686.184.23.414.475.704.444a.899.899 0 00.551-.352 9.178 9.178 0 003.061-5.432 6.364 6.364 0 00-.229-2.158zm20.736 22.711l-11.371-2.907-4.591-7.285a3.907 3.907 0 00-.612 0c-2.265 0-6.122.719-4.27 3.688a68.13 68.13 0 006.978 9.063c.352.45.809.81 1.332 1.05.673.17 1.377.17 2.05 0 2.391-.27 4.812-.06 7.117.63.827.2 1.6.58 2.265 1.12.504.43.836 1.03.933 1.68l1.622-2.13.092-.15c.301-.34.516-.75.628-1.19a2.956 2.956 0 00-2.173-3.569z" fill="#C3CEEB"/><path d="M478.462 961.743a1.014 1.014 0 001.141.01c.112-.075.208-.172.282-.285l.215-.306 2.831 4.438-1.071-.245.688 1.01a4.894 4.894 0 003.321 2.586 1.09 1.09 0 00.75-.183c.157-.153.273-.342.337-.551a15.83 15.83 0 001.53-5.831l-.076.398-3.183-5.127a3.368 3.368 0 00-4.393-.872 3.26 3.26 0 00-.688.612l-.108.138-1.851 2.708a1.027 1.027 0 00-.189.81 1.029 1.029 0 00.464.69zm10.039-.246a7.932 7.932 0 00-.336-1.53v.092a1.024 1.024 0 00.336 1.438z" fill="#C3CEEB"/><path d="M497.453 1011.22a2.915 2.915 0 00.521-2.59l-3.061-11.184 2.494-4.713c-.796-.674-.857-.199-1.53.367-1.286 1.148-2.541 2.556-3.719 3.826a7.793 7.793 0 00-2.035 9.474l.719-1.35 1.377 5.11c.121.46.351.88.671 1.23.32.34.721.61 1.166.76l-.704.88c-.17.21-.249.48-.221.75.029.27.163.51.374.68a.97.97 0 00.353.19c.129.04.264.06.398.04a.873.873 0 00.382-.12.893.893 0 00.305-.26l2.219-2.74c.12-.1.218-.21.291-.35zm23.49-13.253a4.503 4.503 0 00-.689-.276l-11.309-2.892c-.75.949-2.311 2.908-2.464 3.061h-.169l11.815 4.07 2.816-3.963z" fill="#8FA5C6"/><path d="M490.934 973.328l5.371 8.539 2.969-2.877c.125-.287.227-.584.306-.887l-1.01-1.347-.535 1.025-4.791-7.483-2.31 3.03z" fill="#C3CEEB"/><path d="M508.686 969.901l5.999-2.74 2.509-3.06-.413.091-5.019 1.531-3.076 4.178zm-17.784 3.717l2.403-3.244 2.449-10.942c.055-.225.081-.457.076-.689l-2.632 5.203-2.296 9.672zm20.477 10.269l2.51-3.397-10.024.275 2.846-5.371-.903-.689-4.484 9.657s9.611.03 10.055-.475z" fill="#8FA5C6"/><path d="M528.749 985.847a2.94 2.94 0 00-3.061-2.862l-5.724.169 3.658-3.765c.269-.277.481-.604.623-.964a2.923 2.923 0 00-.05-2.248 2.888 2.888 0 00-.665-.935 2.908 2.908 0 00-2.096-.81 2.93 2.93 0 00-2.051.917l-7.652 8.034-10.085.276 4.086-7.744 10.59-3.214a2.916 2.916 0 002.074-2.517 2.94 2.94 0 00-3.773-3.099l-5.004 1.53 3.061-5.723a2.93 2.93 0 00-.333-3.244 2.928 2.928 0 00-.891-.72 2.927 2.927 0 00-3.964 1.224l-2.694 5.066-1.53-4.974a2.92 2.92 0 00-2.52-2.06 2.94 2.94 0 00-1.138.116 2.904 2.904 0 00-1.768 1.4 2.908 2.908 0 00-.236 2.243l3.213 10.621-4.591 8.707-5.157-8.08 2.448-10.942a2.933 2.933 0 00-1.184-3.043 2.94 2.94 0 00-4.554 1.757l-1.163 5.25-3.582-5.602a2.932 2.932 0 00-1.844-1.282 2.932 2.932 0 00-3.494 2.239 2.94 2.94 0 00.395 2.211l3.061 4.79-4.928-1.102a2.936 2.936 0 00-3.12 4.436 2.95 2.95 0 001.835 1.303l10.712 2.388 5.341 8.355-9.718.261-.612-.567-3.06-2.8-4.484-4.086a2.952 2.952 0 00-2.104-1.008 2.946 2.946 0 00-2.837 1.834 2.943 2.943 0 00.763 3.29l3.52 3.582-5.862.168a2.947 2.947 0 00-2.067.935 2.951 2.951 0 00-.795 2.126 2.939 2.939 0 003.061 2.846l6.642-.184-3.872 3.826a2.939 2.939 0 104.132 4.178l8.341-8.233 9.733-.276-4.27 8.081-10.713 3.508c-.373.1-.722.27-1.028.51a2.904 2.904 0 00-1.118 1.95c-.049.39-.022.78.08 1.15.208.75.702 1.38 1.375 1.77.673.39 1.471.49 2.222.29l4.989-1.34-2.74 5.15c-.361.69-.436 1.5-.206 2.24.229.74.744 1.36 1.431 1.73.34.18.713.29 1.097.33.384.03.771-.01 1.14-.12.368-.11.71-.3 1.007-.54.296-.25.541-.55.72-.9l3.06-5.66 1.378 5.11c.207.75.701 1.39 1.374 1.77.673.39 1.471.5 2.222.3.754-.21 1.396-.7 1.786-1.38a2.93 2.93 0 00.295-2.23l-3.06-11.17 3.933-7.427 5.341 8.367-2.173 10.87c-.191.75-.077 1.55.319 2.23.395.67 1.04 1.15 1.792 1.35.757.19 1.559.07 2.23-.32a2.963 2.963 0 001.352-1.81l1.254-4.86 3.153 4.96a2.968 2.968 0 001.844 1.28c.76.16 1.556.02 2.212-.4a2.92 2.92 0 001.291-1.84 2.93 2.93 0 00-.389-2.21l-3.596-5.65 5.265 1.35c.752.19 1.55.07 2.218-.32a2.95 2.95 0 001.347-1.79 2.927 2.927 0 00-.313-2.23 2.846 2.846 0 00-.765-.86c-.308-.23-.66-.4-1.034-.5l-11.355-2.903-5.203-8.142 9.672-.275 8.004 7.652a2.972 2.972 0 004.162-.092 2.952 2.952 0 00-.107-4.163l-3.795-3.596 6.489-.184a2.92 2.92 0 002.785-3.03z" fill="#DCE5F5"/><path d="M215.909 136.706a1.969 1.969 0 00-1.271-1.8 1.976 1.976 0 00-.764-.129l-3.841.108.535-.567a.658.658 0 00.597-.275l1.347-1.76a1.963 1.963 0 00-.153-2.693 1.972 1.972 0 00-2.785 0l-5.143 5.402-6.794.183 2.754-5.188 5.479-1.668a.703.703 0 00-.082.522.704.704 0 00.312.427.692.692 0 00.948-.229l1.531-1.898a1.91 1.91 0 00.306-1.745 1.948 1.948 0 00-1.696-1.397 1.976 1.976 0 00-.768.081l-3.367 1.01 2.051-3.841a1.99 1.99 0 00-.827-2.678 2.026 2.026 0 00-1.147-.214 2.005 2.005 0 00-1.99 1.04l-1.53 2.847-.842-2.77a1.955 1.955 0 00-2.464-1.316 1.958 1.958 0 00-1.102.826l-1.255 1.638a.695.695 0 00-.13.51.676.676 0 00.268.454.703.703 0 00.964-.123l.138-.183 1.791 5.922-3.184 5.999-3.213-5.035 1.637-7.345a1.974 1.974 0 00-1.53-2.357h-.26a1.959 1.959 0 00-2.112.933l-1.133 1.944a.69.69 0 00.26.933h.138l-.168.796-2.173-3.397a1.957 1.957 0 00-1.898-.888 1.918 1.918 0 00-1.515.719v.092l-1.24 1.821a.69.69 0 00-.108.52.69.69 0 00.292.445.686.686 0 00.52.107.695.695 0 00.444-.291l.138-.214 1.913 3.06-3.061-.688a3.01 3.01 0 00-.52 0 1.99 1.99 0 00-2.051.964l-1.102 1.897a.697.697 0 00.245.949.69.69 0 00.949-.245l.199-.367c.279.299.641.507 1.04.597l2.51.566 4.591 1.026c.174.347.452.63.796.811l3.061 4.866-6.122.169-5.876-5.326a1.957 1.957 0 00-2.694 0 .832.832 0 00-.229.229l-1.393 2.25a.694.694 0 001.178.735l.306-.505c.074.122.161.235.261.336l2.372 2.403-3.949.107a2.346 2.346 0 00-.474 0 1.993 1.993 0 00-1.393.995l-.994 1.53a.69.69 0 00.703 1.072.69.69 0 00.444-.291 1.964 1.964 0 001.531.75l4.591-.138-3.061 3.061-.168.183-.077.092-1.01 1.53a.687.687 0 00.184.949.703.703 0 00.918-.107c.043.063.094.12.153.169a1.944 1.944 0 002.785 0l.306-.307.153-.137 5.586-5.494 6.122-.169-3.061 5.525-6.596 2.173a2.072 2.072 0 00-1.148.826l-1.408 1.913a.691.691 0 00.649 1.095.678.678 0 00.453-.268l.368-.505a1.994 1.994 0 002.112.75l2.8-.765-1.76 3.32a1.974 1.974 0 00.827 2.663c.179.103.376.17.581.199l-.337.429a.691.691 0 00.092.964.704.704 0 00.98-.092l1.53-1.852v-.076c.109-.115.201-.243.276-.383l2.02-3.826.918 3.444a2.022 2.022 0 001.24 1.346l-.475.582a.704.704 0 00.107.964.69.69 0 00.964-.092l1.531-1.852a.537.537 0 00.122-.244 1.934 1.934 0 00.367-1.73l-2.035-7.529 2.54-4.79 3.643 5.708-1.408 7.04a1.958 1.958 0 001.209 2.326l-.398.52a.69.69 0 00.886 1.022.675.675 0 00.2-.18l1.393-1.775c.233-.246.401-.546.49-.873l.765-3.06 1.974 3.06c.267.418.683.719 1.163.842l-.245.306a.709.709 0 00.138.98.69.69 0 00.964-.138l1.301-1.699a1.976 1.976 0 00.23-2.433l-2.403-3.765 3.367.857-.352.459a.687.687 0 00.138.964.679.679 0 00.763.058.679.679 0 00.201-.18l1.331-1.775v-.092c.208-.231.355-.51.429-.811a1.983 1.983 0 00-.729-2.07 1.97 1.97 0 00-.695-.333l-7.651-1.959-3.306-5.478 6.519-.184 5.341 5.096c.199.196.44.342.704.429l-.229.321a.666.666 0 00-.145.508.678.678 0 00.267.456.687.687 0 00.964-.138l1.347-1.76a1.96 1.96 0 00-.199-2.632l-2.556-2.403 3.459-.091-.168.214a.687.687 0 00.137.964.692.692 0 00.965-.122l1.316-1.745a1.976 1.976 0 00.535-1.423z" fill="#B0C2DD"/><path d="M180.942 147.143a2.064 2.064 0 00-1.148.826l-1.408 1.913a.694.694 0 00-.042.764.675.675 0 00.18.2.68.68 0 00.764.042.712.712 0 00.2-.179l.367-.505a1.986 1.986 0 002.112.749l.428-.122a16.803 16.803 0 004.224-2.296 11.202 11.202 0 001.607-1.897 2.451 2.451 0 00.673-1.913 1.441 1.441 0 00-.765-.872l-.597 1.101-6.595 2.189z" fill="#C3CEEB"/><path d="M174.131 133.752a.688.688 0 00.948-.214l.307-.505c.073.122.16.235.26.336l2.372 2.403h-1.531c.322.337.613.673.934.964a6.821 6.821 0 003.887 1.53c1.419.1 2.845.053 4.255-.137l2.969-.306c.3-.001.591-.104.826-.291a.886.886 0 00.214-.612 2.357 2.357 0 00-.52-1.531l-4.943.138-5.877-5.326a1.961 1.961 0 00-2.693 0 .84.84 0 00-.23.23l-1.393 2.25a.7.7 0 00-.157.588.686.686 0 00.372.483z" fill="#8FA5C6"/><path d="M194.759 131.334l-.994 1.883-3.214-5.035 1.637-7.346a1.968 1.968 0 00-.272-1.498 1.987 1.987 0 00-1.258-.859h-.26a1.957 1.957 0 00-2.112.934l-1.133 1.943a.69.69 0 00.261.934h.137l-.168.796-.49-.75v2.02a18.142 18.142 0 00.245 3.397c.643 3.275 2.862 5.969 5.004 8.54.123.137.276.306.46.291a.6.6 0 00.382-.23 6.21 6.21 0 002.066-3.658 4.395 4.395 0 00-.291-1.362zm13.942 15.227l-7.652-1.959-3.061-4.897a1.914 1.914 0 00-.428 0c-1.531 0-4.148.474-2.862 2.464a45.221 45.221 0 004.683 6.121c.238.31.548.556.903.72.452.115.925.115 1.377 0a12.345 12.345 0 014.79.428c.558.138 1.08.394 1.531.75.342.287.565.69.627 1.133l1.087-1.439v-.092c.207-.231.354-.509.428-.811a1.96 1.96 0 00-.207-1.506 1.985 1.985 0 00-1.216-.912z" fill="#C3CEEB"/><path d="M180.604 122.443a.704.704 0 00.964-.184l.137-.214 1.913 3.061-.719-.169.459.689a3.254 3.254 0 002.219 1.729.645.645 0 00.505-.122.717.717 0 00.23-.367 10.86 10.86 0 001.071-3.918v.26l-2.173-3.397a1.954 1.954 0 00-1.898-.888 1.912 1.912 0 00-1.515.719v.092l-1.239 1.821a.7.7 0 00.046.888zm6.75-.169a6.252 6.252 0 00-.214-.995.678.678 0 00-.113.545.682.682 0 00.327.45z" fill="#C3CEEB"/><path d="M193.367 155.744a1.934 1.934 0 00.368-1.73l-2.036-7.529 1.668-3.153c-.52-.459-.566-.138-.994.23-.857.78-1.699 1.729-2.495 2.586a6.279 6.279 0 00-1.898 3.612 6.4 6.4 0 00.521 2.754l.489-.918.919 3.444a2.022 2.022 0 001.239 1.346l-.474.582a.704.704 0 00.107.964.687.687 0 00.964-.092l1.53-1.852a.527.527 0 00.092-.244zm15.795-8.953a2.065 2.065 0 00-.459-.183l-7.652-1.944c-.505.643-1.531 1.959-1.668 2.051h-.108l7.943 2.724 1.944-2.648z" fill="#8FA5C6"/><path d="M188.99 130.232l3.612 5.739 1.989-1.943c.094-.185.166-.38.215-.582l-.674-.903-.367.674-3.214-5.035-1.561 2.05z" fill="#C3CEEB"/><path d="M200.926 127.967l4.025-1.837 1.698-2.111h-.29l-3.367 1.01-2.066 2.938zm-11.951 2.465l1.53-2.189 1.637-7.345a1.478 1.478 0 000-.46l-1.775 3.49-1.392 6.504zm13.712 6.947l1.684-2.28-6.734.184 1.913-3.612-.612-.459-3.061 6.504s6.565-.046 6.81-.337z" fill="#8FA5C6"/><path d="M214.486 138.65a1.99 1.99 0 00-2.035-1.928l-3.857.107 2.403-2.525a1.957 1.957 0 00.588-1.393 1.942 1.942 0 00-.588-1.393 1.976 1.976 0 00-2.785 0l-5.158 5.402-6.779.184 2.754-5.188 7.117-2.173a1.96 1.96 0 001.316-2.464 1.99 1.99 0 00-2.464-1.316l-3.367 1.025 2.035-3.841a1.962 1.962 0 00.151-1.507 1.972 1.972 0 00-.962-1.171 1.99 1.99 0 00-2.678.826l-1.79 3.398-1.026-3.336a1.968 1.968 0 00-1.697-1.393 1.973 1.973 0 00-.767.077 1.987 1.987 0 00-1.316 2.463l2.173 7.147-3.06 5.846-3.459-5.433 1.637-7.345a1.942 1.942 0 00-.267-1.502 1.95 1.95 0 00-1.263-.855 1.968 1.968 0 00-1.498.272 1.987 1.987 0 00-.859 1.258l-.78 3.52-2.403-3.765a1.95 1.95 0 00-1.237-.867 1.944 1.944 0 00-1.487.271 1.96 1.96 0 00-.87 1.235 1.967 1.967 0 00.258 1.489l2.066 3.229-3.306-.75a1.968 1.968 0 00-2.053.815 1.971 1.971 0 00-.304.715 1.96 1.96 0 001.531 2.357l7.193 1.53 3.581 5.617-6.52.183-.413-.382-2.066-1.883-3.061-2.754a1.97 1.97 0 00-1.391-.59 1.98 1.98 0 00-1.992 1.959 1.98 1.98 0 00.567 1.401l2.388 2.418-3.949.107a1.975 1.975 0 00-1.928 2.02 1.989 1.989 0 002.036 1.928l4.468-.122-2.601 2.556a1.969 1.969 0 00-.59 1.391 1.968 1.968 0 00.567 1.401 1.972 1.972 0 002.793.023l5.616-5.54 6.55-.183-2.877 5.433-7.177 2.356a1.99 1.99 0 00-1.393 2.434 1.99 1.99 0 002.433 1.377l3.336-.903-1.836 3.474a1.972 1.972 0 00.826 2.663 1.974 1.974 0 002.449-.781l2.02-3.81.934 3.443a1.989 1.989 0 002.418 1.393 1.974 1.974 0 001.392-2.418l-2.02-7.53 2.632-4.989 3.597 5.632-1.531 7.3a1.984 1.984 0 00.202 1.501 1.972 1.972 0 001.206.917 1.98 1.98 0 002.07-.728c.156-.208.269-.444.333-.695l.842-3.275 2.127 3.321a1.95 1.95 0 001.237.868 1.962 1.962 0 001.487-.272 1.96 1.96 0 00.87-1.235 1.967 1.967 0 00-.258-1.489l-2.418-3.764 3.551.903a1.981 1.981 0 002.069-.729c.156-.207.269-.443.333-.695a1.99 1.99 0 00-1.423-2.402l-7.652-1.959-3.305-5.433 6.504-.184 5.387 5.127a1.974 1.974 0 102.785-2.8l-2.54-2.418 4.346-.123a1.978 1.978 0 001.772-1.314c.087-.246.125-.507.11-.767z" fill="#DCE5F5"/><path d="M1408.99 304.471a1.996 1.996 0 00-.52-.559 1.977 1.977 0 00-2.19-.067l-3.27 2.008.19-.75c.1-.048.19-.123.26-.216a.611.611 0 00.12-.316l.3-2.169a1.92 1.92 0 00-.28-1.402 1.9 1.9 0 00-1.18-.814 1.971 1.971 0 00-1.48.205c-.46.261-.79.687-.93 1.184l-1.78 7.163-5.79 3.546-.16-5.789 3.91-4.153c0 .09.01.178.04.262.04.083.08.159.15.223.06.064.13.116.21.152.09.035.17.054.26.056.09.002.18-.014.27-.047a.827.827 0 00.23-.144.844.844 0 00.15-.218.59.59 0 00.06-.26l.39-2.378c.04-.302.01-.608-.09-.894-.1-.285-.28-.54-.5-.743a1.96 1.96 0 00-1.4-.523c-.26.01-.52.071-.75.18-.24.108-.45.262-.63.452l-2.41 2.539-.11-4.292a1.943 1.943 0 00-.63-1.353c-.38-.35-.88-.535-1.4-.514-.4.022-.78.157-1.1.39-.37.161-.68.425-.89.76-.22.334-.33.724-.32 1.119l.08 3.185-2.09-1.937a1.977 1.977 0 00-.65-.402 1.957 1.957 0 00-1.5.059c-.24.109-.45.262-.63.452-.33.341-.52.786-.54 1.253l-.28 2.02a.591.591 0 00.02.264c.02.086.06.166.11.236.06.069.13.128.21.171.07.043.16.07.25.081a.7.7 0 00.5-.141.68.68 0 00.27-.445l.03-.225 4.46 4.147.2 6.693-5.26-2.681-2.19-7.068a1.916 1.916 0 00-.97-1.139 1.934 1.934 0 00-.74-.202 2 2 0 00-.77.099l-.22.129c-.4.128-.74.375-.99.707-.24.333-.38.732-.38 1.141l-.02 2.219c0 .179.07.35.2.474s.3.193.48.191l.12-.069.24.761-3.54-1.807c-.33-.166-.7-.236-1.07-.202-.36.034-.71.17-1.01.394-.32.184-.59.457-.76.787-.1.182-.16.379-.19.581l.04.078-.18 2.168c0 .09.01.18.04.265.02.085.07.164.13.231a.689.689 0 00.97.065.857.857 0 00.17-.211.773.773 0 00.07-.258l.01-.251 3.16 1.65-2.98.941c-.16.074-.31.16-.45.259-.38.142-.71.395-.94.725-.23.329-.36.719-.36 1.119l-.02 2.164c0 .182.07.356.19.484.13.129.3.201.49.202.18 0 .36-.071.49-.199a.73.73 0 00.21-.483l-.01-.412c.39.115.8.112 1.19-.011l2.45-.77 4.47-1.418c.32.209.7.311 1.08.293l5.04 2.615-5.21 3.197-7.69-1.601a1.974 1.974 0 00-2.33 1.344.677.677 0 00-.08.31l-.1 2.609c-.01.182.06.358.18.49s.3.208.48.213c.18.005.36-.062.5-.187a.722.722 0 00.22-.479l.01-.582c.13.067.26.12.39.157l3.23.861-3.36 2.061c-.14.065-.28.144-.41.237-.22.189-.4.426-.53.692-.12.267-.18.557-.18.849l-.11 1.798c-.01.182.05.36.16.497.12.136.29.22.47.232.19.012.37-.048.51-.167.14-.12.22-.289.24-.47a1.98 1.98 0 001.69-.125l3.9-2.408-1.14 4.132-.06.24-.02.116-.12 1.806c-.01.179.05.353.16.487.12.134.29.217.46.229.17.012.34-.037.48-.138a.755.755 0 00.27-.411c.06.033.14.055.21.067.25.068.51.086.76.052.26-.033.51-.117.73-.247a1.978 1.978 0 00.92-1.195l.11-.413.07-.193 2.12-7.462 5.21-3.197.07 6.228-4.63 5.14c-.34.345-.55.797-.59 1.276l-.27 2.33a.588.588 0 00.01.264c.03.086.07.166.12.236.06.07.13.128.2.171.08.043.17.071.26.081.09.01.18.002.26-.022a.665.665 0 00.24-.122.813.813 0 00.18-.202.743.743 0 00.08-.252l.07-.613a2 2 0 001.16.127c.39-.074.75-.263 1.04-.543l2.04-2.048.11 3.704c.02.515.24.999.62 1.347.38.347.88.53 1.4.507.21-.003.41-.044.6-.121l-.08.532c-.03.177.01.358.12.503.1.145.26.243.44.272.18.027.36-.017.51-.123a.735.735 0 00.29-.444l.41-2.339-.04-.065c.04-.152.06-.307.05-.463l-.13-4.264 2.48 2.473c.23.217.5.378.8.47.3.092.62.111.94.057l-.13.732c-.02.177.02.355.13.498.1.142.26.239.44.269.18.027.36-.016.51-.121a.755.755 0 00.28-.438l.41-2.34a.494.494 0 00-.02-.269c.06-.3.03-.606-.06-.894a1.8 1.8 0 00-.47-.761l-5.46-5.392-.15-5.344 5.95 3.041 2.24 6.693c.12.459.42.854.82 1.109.41.254.89.349 1.37.267l-.09.642a.673.673 0 00.58.759.666.666 0 00.51-.13.813.813 0 00.18-.202.741.741 0 00.08-.253l.33-2.205a2.06 2.06 0 000-.987l-.85-2.987 3.21 1.62c.44.222.95.271 1.42.136l-.06.383c-.02.182.03.364.14.507a.69.69 0 001.14-.088.59.59 0 00.09-.252l.29-2.095c.1-.426.06-.873-.12-1.269a1.909 1.909 0 00-.88-.916l-3.93-2.005 3.33-.951-.08.567c-.02.179.03.358.14.499.11.141.28.232.46.252.09.014.18.009.27-.013a.743.743 0 00.24-.117.808.808 0 00.18-.201.754.754 0 00.08-.254l.28-2.175-.05-.078a1.844 1.844 0 00-.37-1.579 1.833 1.833 0 00-.57-.491 2.043 2.043 0 00-.73-.232 1.932 1.932 0 00-.76.064l-7.58 2.15-5.55-3.013 5.55-3.409 7.11 1.672c.27.068.55.072.82.014l-.04.388a.786.786 0 00.01.265c.02.087.06.168.12.239a.656.656 0 00.45.255.692.692 0 00.77-.598l.3-2.17c.07-.477-.04-.961-.31-1.357a1.924 1.924 0 00-1.16-.783l-3.39-.77 2.95-1.804-.04.267c-.03.179.02.358.13.499a.705.705 0 00.97.117c.14-.11.24-.272.26-.45l.28-2.141a1.972 1.972 0 00-.23-1.478z" fill="#B0C2DD"/><path d="M1383.9 330.796c-.34.346-.55.798-.58 1.276l-.28 2.33a.594.594 0 00.02.265c.02.085.06.165.12.235.05.07.12.128.2.171.08.044.16.071.25.081a.708.708 0 00.51-.143.636.636 0 00.17-.203.585.585 0 00.09-.252l.07-.613c.36.157.76.201 1.15.127.39-.074.76-.263 1.04-.543l.31-.317a16.828 16.828 0 002.52-4.061c.24-.788.4-1.598.46-2.417.08-.335.1-.684.03-1.023a2.316 2.316 0 00-.39-.941 1.448 1.448 0 00-1.09-.36l.03 1.235-4.63 5.153z" fill="#C3CEEB"/><path d="M1371.44 322.8c.18.005.35-.06.49-.183a.708.708 0 00.22-.473l.02-.582c.12.067.25.12.39.156l3.23.862-1.33.763c.45.126.86.268 1.29.355a6.882 6.882 0 004.11-.637 21.1 21.1 0 003.6-2.24l2.42-1.741c.26-.151.46-.383.57-.66a.867.867 0 00-.12-.628 2.261 2.261 0 00-1.2-1.043l-4.2 2.584-7.69-1.601c-.49-.111-1-.034-1.43.216-.43.25-.76.653-.9 1.128a.845.845 0 00-.09.31l-.1 2.609a.798.798 0 00.01.308.702.702 0 00.4.449c.1.039.2.055.31.048z" fill="#8FA5C6"/><path d="M1388.07 310.45l.07 2.098-5.25-2.682-2.2-7.068c-.07-.245-.2-.472-.37-.668a1.86 1.86 0 00-.6-.471 1.952 1.952 0 00-.74-.202c-.26-.017-.52.016-.77.099l-.22.13c-.4.127-.74.375-.99.707a1.96 1.96 0 00-.38 1.141l-.02 2.219c0 .179.07.349.2.473.13.125.3.194.48.191l.12-.068.25.761-.8-.394c.34.586.68 1.172 1 1.719.53.981 1.16 1.908 1.88 2.769 2.16 2.467 5.4 3.652 8.52 4.771.17.056.39.123.54.018a.585.585 0 00.21-.386 6.022 6.022 0 00-.01-4.143 4.25 4.25 0 00-.92-1.014zm19.53 6.003l-7.57 2.151-5.06-2.641c-.13.058-.25.13-.37.214-1.32.763-3.35 2.473-1.26 3.524a44.36 44.36 0 007.06 2.874c.35.144.74.199 1.13.161.45-.127.86-.363 1.19-.687a12.528 12.528 0 014.35-2.025 4.032 4.032 0 011.69-.125c.44.073.83.305 1.1.651l.23-1.767-.04-.078c.06-.3.05-.61-.03-.904-.07-.248-.18-.48-.34-.682a2.01 2.01 0 00-.58-.496 1.966 1.966 0 00-1.5-.17z" fill="#C3CEEB"/><path d="M1371.47 309.944a.72.72 0 00.75-.637l.01-.251 3.16 1.651-.71.215.74.357c.4.263.85.433 1.33.496.48.063.97.018 1.43-.131a.675.675 0 00.23-.139.66.66 0 00.15-.217.694.694 0 00.02-.427 10.787 10.787 0 00-1-3.869l.13.221-3.55-1.807c-.33-.166-.7-.236-1.06-.202-.37.034-.72.17-1.02.394-.32.184-.59.457-.76.787-.09.182-.16.379-.19.581l.04.078-.17 2.168c-.02.159.02.318.1.452a.71.71 0 00.37.28zm5.75-3.509c-.2-.265-.43-.512-.67-.739-.01.094 0 .189.03.278.03.09.08.172.14.242.06.069.14.125.23.162.08.038.18.058.27.057z" fill="#C3CEEB"/><path d="M1398.86 331.917c.05-.299.03-.606-.06-.894a1.8 1.8 0 00-.47-.761l-5.46-5.392-.1-3.515c-.68-.131-.56.166-.75.692-.36 1.092-.62 2.319-.89 3.445a6.155 6.155 0 00.14 4.02 6.239 6.239 0 001.8 2.085l-.03-1.026 2.49 2.473a2.005 2.005 0 001.73.527l-.12.732c-.03.177.02.355.12.498.11.142.27.239.44.269.18.027.36-.016.51-.121a.67.67 0 00.28-.438l.41-2.34a.446.446 0 00-.04-.254zm9.25-15.497c-.16.005-.33.029-.49.073l-7.56 2.163c-.12.799-.36 2.431-.44 2.578l-.09.053 8.2-1.644.38-3.223z" fill="#8FA5C6"/><path d="M1382.55 312.39l5.94 3.082.76-2.647a2.461 2.461 0 00-.1-.602l-1.02-.432.01.756-5.25-2.681-.34 2.524z" fill="#C3CEEB"/><path d="M1391.75 304.508l2.57-3.57.43-2.645-.25.145-2.41 2.539-.34 3.531zm-9.12 8.061l.25-2.626-2.2-7.068a1.463 1.463 0 00-.22-.391l.18 3.855 1.99 6.23zm15.26-.929l.34-2.78-5.73 3.515-.12-4.028-.76-.085.55 7.062s5.65-3.314 5.72-3.684z" fill="#8FA5C6"/><path d="M1408.71 306.834a1.95 1.95 0 00-1.21-.868 1.992 1.992 0 00-1.49.243l-3.28 2.015.83-3.347c.07-.247.1-.505.07-.759a2.022 2.022 0 00-.24-.72c-.13-.221-.3-.414-.51-.567a1.89 1.89 0 00-.69-.325 1.99 1.99 0 00-2.4 1.39l-1.8 7.17-5.77 3.538-.17-5.789 5.08-5.399c.18-.187.32-.407.41-.648.1-.24.14-.496.13-.752 0-.256-.06-.508-.17-.74a1.78 1.78 0 00-.44-.614c-.38-.347-.89-.53-1.41-.51-.52.021-1.01.243-1.37.62l-2.4 2.552-.13-4.285a2.092 2.092 0 00-.17-.741 2.115 2.115 0 00-.44-.617 1.982 1.982 0 00-.65-.398c-.24-.088-.5-.129-.76-.118-.52.025-1.01.253-1.37.635a1.99 1.99 0 00-.54 1.404l.12 3.785-2.52-2.328a1.963 1.963 0 00-2.15-.338c-.24.107-.45.259-.63.447-.35.382-.54.884-.53 1.399.01.516.23 1.002.61 1.355l5.39 4.998.22 6.501-5.65-2.897-2.2-7.069c-.07-.246-.2-.474-.36-.671a1.974 1.974 0 00-1.35-.674c-.26-.017-.52.018-.77.103a1.968 1.968 0 00-1.37 1.719c-.02.257.01.515.09.759l1.05 3.385-3.92-2.005a1.962 1.962 0 00-1.5-.121c-.25.079-.47.205-.67.372-.2.167-.36.371-.48.6-.12.227-.2.475-.22.73-.03.255 0 .512.07.755.08.244.2.47.37.665.16.195.36.356.59.474l3.37 1.717-3.22 1.011c-.25.079-.48.207-.68.375-.2.168-.37.374-.49.604-.11.231-.19.482-.21.739-.02.257.01.516.09.76.08.246.2.475.37.671a1.914 1.914 0 001.34.674c.26.017.52-.018.77-.103l6.97-2.286 5.85 2.993-5.54 3.409-.55-.12-2.71-.571-3.99-.817a1.994 1.994 0 00-2.43 1.374c-.14.498-.08 1.03.18 1.478.25.448.67.775 1.17.91l3.25.866-3.35 2.061c-.23.135-.42.311-.57.518-.16.208-.27.443-.33.692-.06.249-.07.507-.04.759.04.253.13.495.26.712.27.439.71.751 1.22.868.5.118 1.04.03 1.49-.242l3.8-2.334-.99 3.473c-.15.499-.08 1.031.17 1.479.25.448.68.775 1.18.91.5.134 1.04.065 1.49-.193.46-.257.79-.682.93-1.181l2.13-7.517 5.57-3.424.19 6.059-5.05 5.586c-.37.372-.57.871-.57 1.389-.01.518.2 1.013.57 1.377a1.977 1.977 0 002.77-.042l2.44-2.433.12 3.873a1.921 1.921 0 002.03 1.853c.46-.06.89-.283 1.21-.629.32-.346.5-.791.52-1.256l-.13-4.251 2.5 2.465c.37.358.87.557 1.38.553a2.01 2.01 0 001.39-.574c.37-.368.58-.865.59-1.381 0-.516-.21-1.01-.57-1.372l-5.45-5.4-.17-5.558 5.87 2.998 2.27 6.976c.06.247.18.478.33.68.16.202.36.371.58.497a1.941 1.941 0 001.49.178c.25-.071.48-.189.69-.348.2-.159.37-.357.5-.58.13-.224.21-.47.24-.724.03-.255.02-.512-.05-.758l-.88-3.207 3.47 1.765c.22.118.47.189.73.21.26.021.52-.009.76-.089.25-.079.48-.205.67-.372.2-.167.36-.371.48-.6.12-.227.2-.475.22-.73.03-.255 0-.512-.07-.755-.08-.244-.2-.47-.36-.665a1.996 1.996 0 00-.6-.473l-3.94-1.998 3.52-1.003c.24-.07.48-.189.68-.348.21-.159.38-.356.5-.58.13-.224.21-.47.25-.724a1.928 1.928 0 00-.98-1.919c-.45-.25-.99-.312-1.49-.173l-7.57 2.15-5.53-2.974 5.53-3.401 7.18 1.675c.5.129 1.03.055 1.48-.205.45-.261.78-.686.92-1.184.07-.249.09-.507.06-.762a1.886 1.886 0 00-.75-1.29c-.2-.155-.43-.267-.68-.332l-3.39-.79 3.7-2.272c.22-.14.41-.322.56-.534.15-.213.25-.452.31-.704.06-.252.06-.512.01-.765a1.833 1.833 0 00-.28-.708z" fill="#DCE5F5"/></svg>