<svg width="305" height="354" viewBox="0 0 305 354" fill="none" xmlns="http://www.w3.org/2000/svg">
<mask id="path-1-inside-1_273_50528" fill="white">
<path d="M168.77 75.699L199.583 27.7162C202.533 23.125 205.576 18.2503 205.824 12.7957C206.073 7.34105 202.355 1.30657 196.903 1.08991C190.961 0.854138 186.316 7.22635 180.371 7.07979C176.493 6.98421 173.326 4.15494 170.035 2.10309C166.744 0.0512396 162.035 -1.14674 159.311 1.61243C157.45 3.49542 157.332 6.45213 156.172 8.82896C154.356 12.544 150.052 14.5194 145.919 14.7105C141.787 14.9017 137.747 13.6272 133.812 12.3655L100.256 1.61243C96.917 0.5419 92.8484 -0.385257 90.2517 1.96928C87.1484 4.77624 88.6332 9.87401 90.3441 13.6973C93.9635 21.8092 97.6721 30.0421 103.426 36.7966C108.352 42.5698 114.683 47.1292 118.936 53.4153C123.037 59.4689 125.089 66.9563 130.327 72.0573C138.929 80.4399 152.661 79.4904 164.577 77.977"/>
</mask>
<path d="M168.77 75.699L199.583 27.7162C202.533 23.125 205.576 18.2503 205.824 12.7957C206.073 7.34105 202.355 1.30657 196.903 1.08991C190.961 0.854138 186.316 7.22635 180.371 7.07979C176.493 6.98421 173.326 4.15494 170.035 2.10309C166.744 0.0512396 162.035 -1.14674 159.311 1.61243C157.45 3.49542 157.332 6.45213 156.172 8.82896C154.356 12.544 150.052 14.5194 145.919 14.7105C141.787 14.9017 137.747 13.6272 133.812 12.3655L100.256 1.61243C96.917 0.5419 92.8484 -0.385257 90.2517 1.96928C87.1484 4.77624 88.6332 9.87401 90.3441 13.6973C93.9635 21.8092 97.6721 30.0421 103.426 36.7966C108.352 42.5698 114.683 47.1292 118.936 53.4153C123.037 59.4689 125.089 66.9563 130.327 72.0573C138.929 80.4399 152.661 79.4904 164.577 77.977" fill="#D82121"/>
<path d="M199.583 27.7162L195.377 25.0132L195.376 25.0145L199.583 27.7162ZM196.903 1.08991L197.102 -3.90615L197.102 -3.90616L196.903 1.08991ZM180.371 7.07979L180.494 2.08131H180.494L180.371 7.07979ZM159.311 1.61243L162.867 5.12684L162.869 5.1253L159.311 1.61243ZM156.172 8.82896L160.664 11.0249L160.666 11.0216L156.172 8.82896ZM133.812 12.3655L135.339 7.60432L135.338 7.60405L133.812 12.3655ZM100.256 1.61243L98.7295 6.37371L98.7302 6.37393L100.256 1.61243ZM90.2517 1.96928L93.6058 5.67741L93.6103 5.67329L90.2517 1.96928ZM90.3441 13.6973L94.9102 11.66L94.908 11.655L90.3441 13.6973ZM103.426 36.7966L99.6201 40.039L99.6226 40.0419L103.426 36.7966ZM118.936 53.4153L114.795 56.2174L114.796 56.2194L118.936 53.4153ZM130.327 72.0573L133.816 68.4762L133.815 68.4752L130.327 72.0573ZM172.977 78.4007L203.79 30.4179L195.376 25.0145L164.563 72.9972L172.977 78.4007ZM203.789 30.4193C206.614 26.0237 210.5 20.0365 210.819 13.0232L200.83 12.5681C200.652 16.464 198.453 20.2264 195.377 25.0132L203.789 30.4193ZM210.819 13.0232C210.995 9.15604 209.789 5.18625 207.574 2.07728C205.343 -1.05365 201.754 -3.72126 197.102 -3.90615L196.705 6.08597C197.504 6.11774 198.5 6.57569 199.429 7.87983C200.374 9.20592 200.902 10.9807 200.83 12.5681L210.819 13.0232ZM197.102 -3.90616C192.42 -4.09191 188.493 -1.65326 186.118 -0.266767C183.178 1.44905 181.792 2.1133 180.494 2.08131L180.247 12.0783C184.895 12.1928 188.804 9.74427 191.159 8.36956C194.078 6.66553 195.445 6.03596 196.705 6.08598L197.102 -3.90616ZM180.494 2.08131C179.757 2.06315 178.85 1.7851 177.485 0.996327C176.808 0.604741 176.11 0.143077 175.296 -0.407701C174.527 -0.928341 173.605 -1.56309 172.68 -2.1399L167.39 6.34608C168.11 6.7952 168.819 7.28355 169.69 7.87347C170.517 8.43325 171.47 9.0696 172.481 9.65376C174.492 10.8165 177.107 12.0009 180.247 12.0783L180.494 2.08131ZM172.68 -2.1399C170.57 -3.4554 167.858 -4.60444 165.004 -4.91671C162.11 -5.23336 158.526 -4.70924 155.752 -1.90043L162.869 5.1253C162.887 5.10619 162.907 5.08305 163.012 5.05368C163.151 5.01527 163.44 4.97183 163.916 5.02397C164.921 5.13385 166.209 5.60973 167.39 6.34608L172.68 -2.1399ZM155.754 -1.90198C153.953 -0.0792091 153.171 2.09279 152.716 3.5113C152.152 5.27611 152.047 5.88032 151.679 6.63637L160.666 11.0216C161.112 10.1063 161.423 9.20957 161.656 8.47477C161.773 8.10617 161.882 7.74027 161.975 7.42782C162.073 7.10038 162.156 6.82394 162.241 6.55971C162.601 5.43491 162.808 5.18706 162.867 5.12684L155.754 -1.90198ZM151.68 6.63305C150.938 8.15073 148.711 9.57602 145.688 9.71586L146.15 19.7052C151.392 19.4627 157.774 16.9372 160.664 11.0249L151.68 6.63305ZM145.688 9.71586C142.602 9.85863 139.416 8.91177 135.339 7.60432L132.285 17.1268C136.078 18.3427 140.972 19.9447 146.15 19.7052L145.688 9.71586ZM135.338 7.60405L101.782 -3.14906L98.7302 6.37393L132.286 17.127L135.338 7.60405ZM101.783 -3.14884C100.029 -3.71108 97.6437 -4.38952 95.1779 -4.48944C92.6598 -4.59149 89.507 -4.1049 86.8931 -1.73474L93.6103 5.67329C93.6326 5.65307 93.6721 5.6178 93.8102 5.57848C93.9759 5.5313 94.2799 5.48237 94.773 5.50235C95.8255 5.545 97.1441 5.86541 98.7295 6.37371L101.783 -3.14884ZM86.8976 -1.73885C83.7303 1.12607 83.2372 4.96147 83.5144 7.91878C83.7875 10.8325 84.8459 13.6518 85.7802 15.7397L94.908 11.655C94.1313 9.91952 93.5919 8.27831 93.4707 6.98555C93.4132 6.37141 93.4688 6.01232 93.5184 5.84131C93.5537 5.71936 93.5778 5.70269 93.6058 5.6774L86.8976 -1.73885ZM85.778 15.7347C89.3505 23.7413 93.3237 32.648 99.6201 40.039L107.232 33.5542C102.021 27.4362 98.5765 19.877 94.9102 11.66L85.778 15.7347ZM99.6226 40.0419C102.286 43.1631 105.36 45.9892 107.953 48.5032C110.651 51.1198 112.977 53.5301 114.795 56.2174L123.077 50.6133C120.642 47.0144 117.676 44.0019 114.914 41.324C112.046 38.5435 109.493 36.2034 107.23 33.5513L99.6226 40.0419ZM114.796 56.2194C116.623 58.9153 117.926 61.8183 119.759 65.3809C121.482 68.7309 123.607 72.4923 126.838 75.6393L133.815 68.4752C131.808 66.5213 130.288 63.9885 128.651 60.8062C127.123 57.8365 125.35 53.969 123.076 50.6112L114.796 56.2194ZM126.837 75.6382C132.22 80.8837 139.031 83.0113 145.694 83.7015C152.309 84.3867 159.214 83.6984 165.207 82.9372L163.947 73.0169C158.025 73.7691 152.106 74.3122 146.724 73.7548C141.392 73.2024 137.035 71.6134 133.816 68.4763L126.837 75.6382Z" fill="#D82121" mask="url(#path-1-inside-1_273_50528)"/>
<path d="M8.09775 308.202C8.58335 306.679 21.2446 265.241 21.7109 263.717L21.7128 263.711C24.4746 254.646 26.879 245.437 27.7379 237.48L27.7449 237.415L27.7502 237.35C27.7723 237.079 27.7933 236.817 27.8139 236.559C27.8522 236.08 27.8892 235.616 27.9301 235.141L27.9309 235.131C28.063 233.556 28.2056 231.972 28.3588 230.377L28.3596 230.368C31.5316 196.707 37.8891 160.349 47.8453 135.313L47.8457 135.312C54.1966 119.332 71.4397 105.971 89.3026 96.1594C106.992 86.4431 123.986 80.9017 128.115 79.9996L128.116 79.9994C144.663 76.3803 155.501 75.9644 162.034 76.376C165.297 76.5817 167.482 76.9936 168.768 77.3138C169.411 77.4739 169.83 77.6115 170.049 77.6897C170.125 77.7169 170.177 77.737 170.205 77.7485L170.54 77.909L170.842 77.8577C170.842 73.9648 171.037 78.044 171.058 78.0501C171.077 78.0551 171.098 78.0611 171.122 78.0679C171.228 78.0977 171.393 78.1445 171.614 78.2085C172.054 78.3365 172.716 78.5331 173.573 78.8005C175.289 79.3354 177.787 80.1526 180.867 81.269C187.033 83.504 195.5 86.9259 204.685 91.6634C223.199 101.212 243.967 115.77 255.195 136.134C259.577 144.081 262.521 154.341 265.111 166.094C266.242 171.229 267.287 176.551 268.361 182.02C268.509 182.776 268.658 183.534 268.808 184.295C270.036 190.538 271.317 196.94 272.798 203.284C277.123 221.822 280.924 240.554 283.321 257.389L283.401 257.955L283.608 258.488C284.813 261.604 286.06 264.702 287.288 267.754C289.852 274.124 292.335 280.292 294.185 285.994C295.538 290.163 296.447 293.785 296.779 296.756C297.122 299.824 296.771 301.551 296.308 302.42C295.651 303.649 292.598 307.416 286.107 312.413C279.789 317.278 270.565 323.035 258.07 328.396C233.104 339.108 195.05 348.254 141.034 345.506C86.5901 342.736 53.7992 335.71 34.2998 328.486C14.8776 321.291 9.32668 314.168 8.09775 311.538M15.5266 266.817C16.0067 265.311 16.4772 263.805 16.9381 262.299C19.6813 253.295 21.9689 244.457 22.775 236.988C22.7957 236.735 22.816 236.481 22.8363 236.226C22.8755 235.737 22.9147 235.247 22.9566 234.758C23.0904 233.163 23.2349 231.558 23.3899 229.944C26.576 196.133 32.9865 159.212 43.2075 133.51C57.2805 98.0996 117.708 77.2019 127.056 75.1596C160.867 67.7647 172.299 73.248 172.299 73.248C172.299 73.248 235.702 90.453 259.582 133.765C266.417 146.162 269.762 163.203 273.276 181.103C274.645 188.077 276.04 195.182 277.676 202.193C282.019 220.809 285.855 239.697 288.28 256.73C289.426 259.693 290.639 262.709 291.851 265.721C298.266 281.66 304.633 297.482 300.731 304.814C296.082 313.531 250.212 356.111 140.788 350.544C31.3649 344.978 7.39568 322.249 3.49908 313.531C3.21822 312.843 3.06076 312.111 3.03391 311.368C2.64853 305.517 6.66995 293.5 11.2099 279.934C12.6379 275.667 14.1171 271.247 15.5266 266.817Z" stroke="#D82121" stroke-width="5"/>
<path d="M122.981 63.2475L122.982 63.2473C124.781 62.9596 129.067 62.7214 134.742 62.5608C140.344 62.4024 147.122 62.3229 153.781 62.3229C160.441 62.3229 166.962 62.4024 172.051 62.5606C174.598 62.6398 176.767 62.7382 178.406 62.8543C179.228 62.9125 179.894 62.9736 180.397 63.0358C180.899 63.0978 181.112 63.1467 181.145 63.1541C181.148 63.155 181.15 63.1553 181.149 63.155C181.163 63.1597 181.177 63.1642 181.19 63.1688C180.9 64.0941 180.3 66.0522 180.657 68.1991C180.928 69.8196 181.815 71.0569 182.516 71.9241C182.842 72.3272 183.113 72.6407 183.351 72.9164C183.73 73.3548 184.027 73.6978 184.329 74.1537C184.716 74.7374 184.848 75.1661 184.827 75.621C184.804 76.1189 184.578 77.0068 183.539 78.4367C183.529 78.4433 183.393 78.5722 182.976 78.7592C182.479 78.9814 181.761 79.2075 180.795 79.4138C178.866 79.826 176.255 80.0965 173.129 80.2319C166.898 80.5019 158.976 80.2222 151.146 79.6564C143.327 79.0914 135.676 78.2465 130.008 77.4039C127.166 76.9812 124.872 76.5664 123.321 76.1982C123.123 76.1512 122.944 76.1064 122.781 76.0639C122.853 74.8647 122.917 73.3196 122.856 71.803C122.806 70.5942 122.675 69.2868 122.364 68.095C122.067 66.96 121.521 65.584 120.391 64.6156C120.272 64.5135 120.206 64.4321 120.169 64.3787C120.337 64.1722 121.017 63.5609 122.981 63.2475ZM181.353 62.5558C181.353 62.5556 181.353 62.56 181.351 62.5695C181.352 62.5607 181.352 62.5559 181.353 62.5558ZM121.671 75.7119C121.671 75.7119 121.672 75.7125 121.675 75.7138C121.672 75.7125 121.671 75.7119 121.671 75.7119Z" fill="#C11414" stroke="#D82121" stroke-width="5"/>
</svg>
