<svg width="501" height="434" viewBox="0 0 501 434" fill="none" xmlns="http://www.w3.org/2000/svg">
<path d="M500.476 433.851C498.445 418.461 459.119 399.561 427.877 400.521C396.623 401.48 369.317 421.781 354.938 418.789C342.729 416.252 330.974 410.457 319.03 406.025C306.379 401.329 294.46 403.589 281.747 406.997C273.902 409.106 266.056 411.214 258.224 413.323C234.626 419.673 232.343 403.424 208.429 402.301C194.177 401.632 180.227 406.619 166.151 409.232C151.382 411.972 136.322 412.212 121.666 407.932C104.437 402.907 86.2625 392.68 69.0966 403.702C62.6011 407.868 56.5218 413.436 49.5091 415.456C31.9144 420.519 12.1125 413.146 0.143066 433.838H500.476V433.851Z" fill="#C2E1F7"/>
<path d="M104.753 129.845C103.255 126.623 105.136 121.836 113.2 117.338C131.752 110.86 184.156 95.1621 258.84 104.734C292.629 109.074 297.601 117.146 322.241 115.71C368.811 112.966 396.926 107.51 398.328 127.963C395.587 136.067 384.845 151.542 384.845 151.542L318.48 166.219C318.48 166.219 248.194 170.367 246.409 170.75C244.624 171.101 178.609 170.75 178.609 170.75L121.807 149.085L104.753 129.845Z" fill="#1A3F91"/>
<path d="M318.831 29.4008C318.831 29.4008 296.359 -4.73991 278.572 1.0991C260.785 6.93812 270.667 34.474 270.667 34.474L319.118 41.6531L318.831 29.4008Z" fill="#7C4291"/>
<path d="M326.577 30.5496C326.577 30.5496 358.038 4.41747 373.594 15.2021C389.181 25.9867 371.777 49.5023 371.777 49.5023L322.816 42.2275L326.577 30.5496Z" fill="#7C4291"/>
<path d="M306.4 39.8026C306.4 39.8026 307.356 26.7526 321.573 28.5394C335.79 30.3262 335.535 44.142 335.535 44.142L306.4 39.8026Z" fill="#DC4C57"/>
<path d="M383.128 78.3668L247.159 58.6602L223.991 218.827L359.96 238.533L383.128 78.3668Z" fill="#F4D9AD"/>
<path d="M397.601 52.7171L240.495 29.947L236.566 57.1046L393.672 79.8746L397.601 52.7171Z" fill="#F4D9AD"/>
<path d="M279.886 35.6659L240.484 29.9551L236.555 57.1126L275.958 62.8234L279.886 35.6659Z" fill="#D1B283"/>
<path d="M247.143 58.5957L244.976 73.6559L224.001 218.738L261.105 224.13L282.43 76.8466L284.278 63.988L247.143 58.5957Z" fill="#D1B283"/>
<path d="M329.747 42.3445L312.365 39.8252L285.191 227.686L302.573 230.205L329.747 42.3445Z" fill="#7C4291"/>
<path d="M306.272 39.3243L304.678 39.101C306.272 27.742 317.939 27.2634 318.066 27.2634L318.13 28.8588C317.716 28.8588 307.675 29.3055 306.272 39.3243Z" fill="#561922"/>
<path d="M336.904 43.6311L335.311 43.5992C335.502 34.7609 326.895 30.5172 326.8 30.4853L327.501 29.0496C327.884 29.241 337.127 33.7718 336.904 43.6311Z" fill="#561922"/>
<path d="M382.996 79.08L247.046 59.3932L247.27 57.7979L383.219 77.5166L382.996 79.08Z" fill="#561922"/>
<path d="M329.572 43.5995L312.168 41.0788L312.391 39.5154L329.795 42.036L329.572 43.5995Z" fill="#561922"/>
<path d="M189.513 69.955C189.513 69.955 166.435 49.9492 155.342 58.1813C144.281 66.4133 157.191 84.3771 157.191 84.3771L192.413 78.8572L189.513 69.955Z" fill="#75ADDD"/>
<path d="M195.919 68.9657C195.919 68.9657 211.825 42.8657 224.862 47.3327C237.899 51.7997 231.078 72.8584 231.078 72.8584L195.855 78.3784L195.919 68.9657Z" fill="#75ADDD"/>
<path d="M180.49 80.7391C180.49 80.7391 178.1 71.0074 191.328 68.6782C204.556 66.3489 207.776 76.4635 207.776 76.4635L180.49 80.7391Z" fill="#7C4291"/>
<path d="M179.693 80.8035C179.056 71.2951 188.3 68.4872 188.395 68.4553L188.842 69.9869C188.523 70.0826 180.745 72.4757 181.287 80.6758L179.693 80.8035Z" fill="#561922"/>
<path d="M209.816 76.3364C206.947 68.7744 196.524 69.0298 196.428 69.0298L196.365 67.4344C196.843 67.4344 208.031 67.1791 211.282 75.7941L209.816 76.3364Z" fill="#561922"/>
<path d="M155.117 251.124L124.612 109.903L228.177 93.6938L234.839 238.648L155.117 251.124Z" fill="#7C4291"/>
<path d="M178.641 247.454L151.451 105.691L249.851 90.3113L264.992 233.958L178.641 247.454Z" fill="#C4A1CB"/>
<path d="M254.347 98.6079L121.17 119.443L114.699 90.8225L251.765 69.4128L254.347 98.6079Z" fill="#7C4291"/>
<path d="M141.793 86.6108L147.977 115.232L254.346 98.6079L251.764 69.4128L141.793 86.6108Z" fill="#C4A1CB"/>
<path d="M209.084 105.691L188.803 108.862L209.873 243.912L230.155 240.742L209.084 105.691Z" fill="#75ADDD"/>
<path d="M205.59 76.6234L183.293 80.1091L187.803 109.017L210.1 105.531L205.59 76.6234Z" fill="#75ADDD"/>
<path d="M250.599 98.306L126.327 117.721L126.573 119.297L250.845 99.8822L250.599 98.306Z" fill="#561922"/>
<path d="M429.631 363.309C429.631 363.309 420.196 275.788 380.574 192.031C377.865 186.32 383.348 182.778 384.272 177.29C385.196 171.77 376.048 171.802 380.766 166.474C387.428 158.976 402.122 138.651 402.122 125.665C362.947 157.572 135.578 168.356 101.758 129.079C101.758 142.033 111.703 158.976 118.365 166.474C123.083 171.802 113.934 171.802 114.859 177.29C115.783 182.81 121.266 186.32 118.556 192.031C78.9028 275.788 69.4995 363.309 69.4995 363.309C69.4995 363.309 37.6556 409.83 46.1665 415.158C57.4823 421.859 441.616 421.859 452.932 415.158C461.475 409.83 429.631 363.309 429.631 363.309Z" fill="#274F9D"/>
<path d="M103.702 134.216C103.702 134.216 95.2872 122.633 113.201 117.337C102.587 124.42 110.906 132.429 133.984 140.884C155.15 148.638 213.96 157.859 265.44 155.306C360.525 149.021 389.341 131.408 389.341 131.408C406.203 123.463 388.99 115.327 388.99 115.327C403.844 120.336 407.063 126.813 393.676 135.46C318.003 175.504 139.626 167.176 103.702 134.216Z" fill="white"/>
<path d="M245.357 163.124C244.337 163.124 243.317 163.124 242.297 163.124C184.188 162.837 132.071 153.552 109.471 139.513L110.3 138.173C132.677 152.084 184.475 161.242 242.297 161.561C243.317 161.561 244.337 161.561 245.357 161.561C307.26 161.561 361.034 151.829 393.261 134.759L393.994 136.162C361.576 153.329 307.515 163.124 245.357 163.124Z" fill="#561922"/>
<path d="M158.975 186.671C129.681 182.874 119.067 168.771 118.62 168.197L119.895 167.271C119.991 167.399 130.606 181.406 159.166 185.108L158.975 186.671Z" fill="#561922"/>
<path d="M337.988 186.671L337.924 185.076C338.179 185.076 364.413 184.087 378.884 168.931L380.032 170.048C365.114 185.682 338.243 186.671 337.988 186.671Z" fill="#561922"/>
<path d="M167.071 216.409C146.958 212.453 128.789 201.796 119.608 188.586L120.915 187.661C129.872 200.551 147.691 210.953 167.39 214.814L167.071 216.409Z" fill="#561922"/>
<path d="M320.839 209.134L320.712 207.539C321.062 207.507 354.723 204.38 379.427 187.437L380.319 188.745C355.265 205.943 321.19 209.102 320.839 209.134Z" fill="#561922"/>
<path d="M183.614 80.8673L183.391 79.3039L205.512 75.8259L205.736 77.4213L183.614 80.8673Z" fill="#561922"/>
<path d="M253.645 405.682C207.33 405.682 160.664 396.397 114.03 377.859L114.635 376.391C207.521 413.34 300.439 413.34 390.742 376.391L391.348 377.859C345.989 396.429 299.96 405.682 253.645 405.682Z" fill="#561922"/>
</svg>
