<svg width="20" height="20" viewBox="0 0 20 20" fill="none" xmlns="http://www.w3.org/2000/svg">
<path d="M3.06902 9.24169C2.72459 9.24268 2.38746 9.34368 2.09665 9.53302C1.80584 9.72236 1.57323 9.99229 1.42573 10.3116C1.27823 10.6309 1.22186 10.9865 1.26316 11.3373C1.30445 11.6881 1.44172 12.0197 1.65908 12.2938L6.29263 18.1164C6.45784 18.3269 6.66961 18.4938 6.91036 18.6035C7.1511 18.7131 7.41386 18.7622 7.67683 18.7467C8.23924 18.7157 8.747 18.4071 9.07073 17.8997L18.6958 1.99821C18.6974 1.99558 18.699 1.99294 18.7007 1.99034C18.791 1.84809 18.7617 1.5662 18.5753 1.38911C18.5241 1.34048 18.4637 1.30312 18.3979 1.27933C18.3321 1.25553 18.2622 1.24582 18.1926 1.25077C18.123 1.25572 18.0551 1.27524 17.9931 1.30813C17.9312 1.34101 17.8764 1.38657 17.8322 1.44199C17.8288 1.44634 17.8252 1.45063 17.8216 1.45486L8.11454 12.7055C8.07761 12.7484 8.03275 12.7832 7.98257 12.8081C7.93239 12.833 7.87789 12.8474 7.82224 12.8505C7.76659 12.8536 7.71089 12.8453 7.65839 12.8261C7.60589 12.8069 7.55762 12.7772 7.5164 12.7387L4.29483 9.73138C3.96024 9.41674 3.52292 9.24204 3.06902 9.24169Z" fill="white"/>
</svg>
