<svg width="32" height="32" viewBox="0 0 32 32" fill="none" xmlns="http://www.w3.org/2000/svg">
<g clip-path="url(#clip0_273_82867)">
<path d="M22.1922 8.48025C23.5626 7.17702 23.5377 6.33378 23.5377 6.33378C21.9779 6.40567 20.4212 6.08273 19.0104 5.39458C20.1715 4.43919 20.0196 3.78473 20.0196 3.78473C18.7941 3.8268 17.5784 3.51895 16.5134 2.89684C17.4574 2.19553 17.4281 1.67762 17.4281 1.67762C16.3132 1.67568 15.2352 1.25484 14.4059 0.49776C14.689 1.58442 14.5586 2.73426 14.0404 3.72144C14.0404 3.72144 14.4852 3.98933 15.5455 3.48079C15.5991 4.71301 15.3045 5.93192 14.6959 6.99645C14.6959 6.99645 15.2043 7.43587 16.5906 6.85445C16.5416 8.42338 16.1014 9.95103 15.3103 11.2974C15.3103 11.2974 16.0447 11.7126 17.8366 11.108C17.6379 12.8636 17.088 14.5573 16.2199 16.0875C16.2199 16.0875 17.9739 17.0314 22.6711 14.1977C27.3682 11.3639 27.3511 9.37212 27.3511 9.37212C25.5926 9.42654 23.8379 9.12318 22.1922 8.48025Z" fill="#0080FB"/>
<mask id="path-2-inside-1_273_82867" fill="white">
<path d="M22.583 13.0835L23.6161 14.796L22.583 13.0835Z"/>
</mask>
<path d="M21.7268 13.6001L22.7599 15.3126L24.4724 14.2794L23.4393 12.5669L21.7268 13.6001ZM24.4724 14.2794L23.4393 12.5669L21.7268 13.6001L22.7599 15.3126L24.4724 14.2794Z" fill="#0080FB" mask="url(#path-2-inside-1_273_82867)"/>
<path d="M18.2082 20.3102C20.1077 18.5091 20.0769 17.3476 20.0769 17.3476C17.9208 17.4533 15.7708 17.015 13.8239 16.0731C15.4326 14.752 15.2254 13.8511 15.2254 13.8511C13.5316 13.9143 11.8528 13.4954 10.3835 12.6429C11.6912 11.6728 11.6529 10.9594 11.6529 10.9594C10.112 10.9615 8.62403 10.3864 7.4811 9.34696C7.86771 10.8427 7.68261 12.4272 6.96218 13.7893C6.96218 13.7893 7.57578 14.1565 9.04332 13.4514C9.11218 15.1487 8.69993 16.8291 7.8543 18.2981C7.8543 18.2981 8.555 18.9013 10.4734 18.0944C10.399 20.2559 9.78413 22.3622 8.68512 24.2203C8.68512 24.2203 9.69827 24.7891 12.1773 23.9487C11.8953 26.368 11.1281 28.7035 9.92182 30.8152C9.92182 30.8152 12.342 32.108 18.8457 28.1843C25.3494 24.2607 25.3342 21.5169 25.3342 21.5169C22.9037 21.5994 20.4799 21.1889 18.2082 20.3102Z" fill="#0080FB"/>
<path d="M17.4731 27.8447L19.1856 26.8116L20.7353 29.3803L19.0229 30.4135L17.4731 27.8447Z" fill="#0080FB"/>
</g>
<defs>
<clipPath id="clip0_273_82867">
<rect width="32" height="32" fill="white" transform="translate(0.000488281)"/>
</clipPath>
</defs>
</svg>
