<svg width="96" height="30" viewBox="0 0 96 30" fill="none" xmlns="http://www.w3.org/2000/svg">
<path fill-rule="evenodd" clip-rule="evenodd" d="M0.0449219 28.7632V0.635433H16.7455V28.7632H12.0546V4.71665H4.75535V28.7632H0.0449219ZM29.4421 0C26.7041 0 24.5501 1.33484 22.9799 4.00457C21.4098 6.69985 20.6247 10.2318 20.6247 14.6004C20.6247 19.1223 21.3838 22.7181 22.902 25.3878C24.3943 28.0576 26.5743 29.3924 29.4421 29.3924C32.3618 29.3924 34.6457 27.9937 36.2937 25.1962C37.8638 22.5265 38.6489 18.9818 38.6489 14.5621C38.6489 10.1934 37.8379 6.6743 36.2158 4.00457C34.5938 1.33484 32.3359 0 29.4421 0ZM25.1063 14.6438C25.1063 11.5525 25.4761 9.04251 26.2157 7.11367C26.9294 5.17205 28.0065 4.20125 29.4469 4.20125C31.043 4.20125 32.1978 5.18482 32.9116 7.15199C33.5474 8.87646 33.8653 11.3482 33.8653 14.5672C33.8653 17.6712 33.4955 20.2195 32.7558 22.2122C32.0162 24.205 30.9132 25.2013 29.4469 25.2013C28.0324 25.2013 26.9554 24.1922 26.2157 22.1739C25.4761 20.1557 25.1063 17.6456 25.1063 14.6438ZM52.7337 0.635433H57.4442V28.7632H52.7337V14.9101H48.471C46.4467 14.9101 44.7338 14.297 43.3324 13.0707C41.892 11.8699 41.1718 10.3627 41.1718 8.54877V0.635433H45.8433V8.01228C45.8433 8.76593 46.0769 9.36629 46.544 9.81338C47.1928 10.4137 48.1661 10.7139 49.4637 10.7139H52.7337V0.635433ZM69.5556 28.7632H64.8647V4.79329H60.3878V0.635433H74.0714V4.79329H69.5556V28.7632ZM77.7023 0.635433H85.3129C87.5579 0.635433 89.3291 1.13999 90.6268 2.14912C92.2488 3.41373 93.0598 5.40642 93.0598 8.12724L95.4929 28.7632H90.7825L89.3032 14.7568H81.9261L81.42 28.7632H76.7096L77.7023 0.635433ZM81.9986 10.6382H88.7528C88.5322 8.46662 88.1559 6.97211 87.6238 6.15458C86.988 5.2221 85.9239 4.75586 84.4316 4.75586H82.1737L81.9986 10.6382Z" fill="white"/>
</svg>
