<svg width="100" height="42" viewBox="0 0 100 42" fill="none" xmlns="http://www.w3.org/2000/svg">
<path fill-rule="evenodd" clip-rule="evenodd" d="M5.06396 36.2277V5.77847H20.7892V36.2277H16.3722V10.1965H9.49928V36.2277H5.06396ZM32.7442 5.09082C30.1661 5.09082 28.1378 6.53583 26.6594 9.42589C25.1809 12.3436 24.4417 16.167 24.4417 20.8962C24.4417 25.7913 25.1565 29.6839 26.5861 32.5739C27.9912 35.464 30.0439 36.909 32.7442 36.909C35.4934 36.909 37.6438 35.3949 39.1955 32.3665C40.674 29.4765 41.4132 25.6392 41.4132 20.8547C41.4132 16.1255 40.6496 12.316 39.1222 9.42589C37.5949 6.53583 35.4689 5.09082 32.7442 5.09082ZM28.6622 20.9439C28.6622 17.5975 29.0104 14.8804 29.7068 12.7923C30.3789 10.6905 31.393 9.63956 32.7493 9.63956C34.2521 9.63956 35.3396 10.7043 36.0116 12.8338C36.6103 14.7006 36.9096 17.3763 36.9096 20.861C36.9096 24.2212 36.5614 26.9798 35.865 29.137C35.1685 31.2942 34.1299 32.3728 32.7493 32.3728C31.4174 32.3728 30.4033 31.2804 29.7068 29.0955C29.0104 26.9107 28.6622 24.1935 28.6622 20.9439ZM54.6744 5.77847H59.1097V36.2277H54.6744V21.2312H50.6607C48.7546 21.2312 47.1417 20.5675 45.8221 19.24C44.4659 17.9402 43.7878 16.3085 43.7878 14.3449V5.77847H48.1864V13.7641C48.1864 14.58 48.4063 15.2299 48.8462 15.7139C49.4571 16.3638 50.3735 16.6887 51.5954 16.6887H54.6744V5.77847ZM70.5137 36.2277H66.0967V10.2795H61.8814V5.77847H74.7657V10.2795H70.5137V36.2277ZM78.1864 5.77847H85.3526C87.4664 5.77847 89.1342 6.32467 90.356 7.41708C91.8834 8.78606 92.647 10.9432 92.647 13.8886L94.938 36.2277H90.5027L89.1098 21.0653H82.1636L81.687 36.2277H77.2517L78.1864 5.77847ZM82.2309 16.6072H88.5907C88.3829 14.2564 88.0286 12.6385 87.5277 11.7536C86.9289 10.7441 85.927 10.2394 84.5219 10.2394H82.3959L82.2309 16.6072Z" fill="#7198D2"/>
</svg>
