<svg width="300" height="27" viewBox="0 0 300 27" fill="none" xmlns="http://www.w3.org/2000/svg">
<path d="M0 21L9.45 0H13.29L22.77 21H18.69L10.56 2.07H12.12L4.02 21H0ZM4.35 16.14L5.4 13.08H16.74L17.79 16.14H4.35Z" fill="white"/>
<path d="M36.5796 19.26V8.16H30.4296L30.3396 10.74C30.2996 11.66 30.2396 12.55 30.1596 13.41C30.0796 14.25 29.9496 15.03 29.7696 15.75C29.5896 16.45 29.3296 17.03 28.9896 17.49C28.6496 17.95 28.1996 18.25 27.6396 18.39L23.9196 17.82C24.5196 17.82 24.9996 17.63 25.3596 17.25C25.7396 16.85 26.0296 16.31 26.2296 15.63C26.4496 14.93 26.6096 14.14 26.7096 13.26C26.8096 12.36 26.8796 11.43 26.9196 10.47L27.1296 4.98H40.3296V19.26H36.5796ZM23.3496 24.57V17.82H42.6996V24.57H39.1896V21H26.8296V24.57H23.3496Z" fill="white"/>
<path d="M46.0488 21V4.98H53.8788C55.8188 4.98 57.3388 5.34 58.4388 6.06C59.5588 6.78 60.1188 7.8 60.1188 9.12C60.1188 10.42 59.5988 11.44 58.5588 12.18C57.5188 12.9 56.1388 13.26 54.4188 13.26L54.8688 12.33C56.8088 12.33 58.2488 12.69 59.1888 13.41C60.1488 14.11 60.6288 15.14 60.6288 16.5C60.6288 17.92 60.0988 19.03 59.0388 19.83C57.9788 20.61 56.3688 21 54.2088 21H46.0488ZM49.6188 18.27H53.9088C54.9288 18.27 55.6988 18.11 56.2188 17.79C56.7388 17.45 56.9988 16.94 56.9988 16.26C56.9988 15.54 56.7588 15.01 56.2788 14.67C55.7988 14.33 55.0488 14.16 54.0288 14.16H49.6188V18.27ZM49.6188 11.67H53.5488C54.5088 11.67 55.2288 11.5 55.7088 11.16C56.2088 10.8 56.4588 10.3 56.4588 9.66C56.4588 9 56.2088 8.51 55.7088 8.19C55.2288 7.87 54.5088 7.71 53.5488 7.71H49.6188V11.67Z" fill="white"/>
<path d="M72.093 21.21C70.313 21.21 68.7531 20.86 67.413 20.16C66.093 19.44 65.063 18.46 64.323 17.22C63.603 15.98 63.243 14.57 63.243 12.99C63.243 11.39 63.593 9.98 64.293 8.76C65.013 7.52 65.993 6.55 67.233 5.85C68.493 5.15 69.923 4.8 71.523 4.8C73.083 4.8 74.473 5.14 75.693 5.82C76.913 6.5 77.873 7.46 78.573 8.7C79.273 9.94 79.623 11.4 79.623 13.08C79.623 13.24 79.6131 13.42 79.593 13.62C79.593 13.82 79.583 14.01 79.563 14.19H66.2131V11.7H77.583L76.113 12.48C76.133 11.56 75.943 10.75 75.543 10.05C75.143 9.35 74.593 8.8 73.893 8.4C73.213 8 72.423 7.8 71.523 7.8C70.6031 7.8 69.793 8 69.093 8.4C68.413 8.8 67.873 9.36 67.473 10.08C67.093 10.78 66.903 11.61 66.903 12.57V13.17C66.903 14.13 67.123 14.98 67.563 15.72C68.0031 16.46 68.623 17.03 69.423 17.43C70.2231 17.83 71.143 18.03 72.183 18.03C73.083 18.03 73.893 17.89 74.613 17.61C75.333 17.33 75.9731 16.89 76.5331 16.29L78.543 18.6C77.823 19.44 76.913 20.09 75.813 20.55C74.733 20.99 73.493 21.21 72.093 21.21Z" fill="white"/>
<path d="M83.7246 21V4.98H87.4746V11.49H95.5446V4.98H99.2946V21H95.5446V14.67H87.4746V21H83.7246Z" fill="white"/>
<path d="M107.65 21V7.26L108.52 8.16H102.01V4.98H117.01V8.16H110.53L111.4 7.26V21H107.65Z" fill="white"/>
<path d="M118.421 14.22V11.1H126.671V14.22H118.421Z" fill="white"/>
<path d="M142.324 21L136.534 13.32L139.594 11.43L146.734 21H142.324ZM130.834 21V4.98H134.584V21H130.834ZM133.474 14.58V11.46H138.904V14.58H133.474ZM139.954 13.44L136.444 13.02L142.324 4.98H146.344L139.954 13.44Z" fill="white"/>
<path d="M158.806 21V17.76L158.596 17.07V11.4C158.596 10.3 158.266 9.45 157.606 8.85C156.946 8.23 155.946 7.92 154.606 7.92C153.706 7.92 152.816 8.06 151.936 8.34C151.076 8.62 150.346 9.01 149.746 9.51L148.276 6.78C149.136 6.12 150.156 5.63 151.336 5.31C152.536 4.97 153.776 4.8 155.056 4.8C157.376 4.8 159.166 5.36 160.426 6.48C161.706 7.58 162.346 9.29 162.346 11.61V21H158.806ZM153.766 21.21C152.566 21.21 151.516 21.01 150.616 20.61C149.716 20.19 149.016 19.62 148.516 18.9C148.036 18.16 147.796 17.33 147.796 16.41C147.796 15.51 148.006 14.7 148.426 13.98C148.866 13.26 149.576 12.69 150.556 12.27C151.536 11.85 152.836 11.64 154.456 11.64H159.106V14.13H154.726C153.446 14.13 152.586 14.34 152.146 14.76C151.706 15.16 151.486 15.66 151.486 16.26C151.486 16.94 151.756 17.48 152.296 17.88C152.836 18.28 153.586 18.48 154.546 18.48C155.466 18.48 156.286 18.27 157.006 17.85C157.746 17.43 158.276 16.81 158.596 15.99L159.226 18.24C158.866 19.18 158.216 19.91 157.276 20.43C156.356 20.95 155.186 21.21 153.766 21.21Z" fill="white"/>
<path d="M164.646 20.97L164.826 17.82C164.966 17.84 165.096 17.86 165.216 17.88C165.336 17.9 165.446 17.91 165.546 17.91C166.166 17.91 166.646 17.72 166.986 17.34C167.326 16.96 167.576 16.45 167.736 15.81C167.916 15.15 168.036 14.42 168.096 13.62C168.176 12.8 168.236 11.98 168.276 11.16L168.546 4.98H181.506V21H177.756V7.14L178.626 8.16H171.006L171.816 7.11L171.606 11.34C171.546 12.76 171.426 14.08 171.246 15.3C171.086 16.5 170.826 17.55 170.466 18.45C170.126 19.35 169.646 20.05 169.026 20.55C168.426 21.05 167.656 21.3 166.716 21.3C166.416 21.3 166.086 21.27 165.726 21.21C165.386 21.15 165.026 21.07 164.646 20.97Z" fill="white"/>
<path d="M194.027 21.21C192.247 21.21 190.687 20.86 189.347 20.16C188.027 19.44 186.997 18.46 186.257 17.22C185.537 15.98 185.177 14.57 185.177 12.99C185.177 11.39 185.527 9.98 186.227 8.76C186.947 7.52 187.927 6.55 189.167 5.85C190.427 5.15 191.857 4.8 193.457 4.8C195.017 4.8 196.407 5.14 197.627 5.82C198.847 6.5 199.807 7.46 200.507 8.7C201.207 9.94 201.557 11.4 201.557 13.08C201.557 13.24 201.547 13.42 201.527 13.62C201.527 13.82 201.517 14.01 201.497 14.19H188.147V11.7H199.517L198.047 12.48C198.067 11.56 197.877 10.75 197.477 10.05C197.077 9.35 196.527 8.8 195.827 8.4C195.147 8 194.357 7.8 193.457 7.8C192.537 7.8 191.727 8 191.027 8.4C190.347 8.8 189.807 9.36 189.407 10.08C189.027 10.78 188.837 11.61 188.837 12.57V13.17C188.837 14.13 189.057 14.98 189.497 15.72C189.937 16.46 190.557 17.03 191.357 17.43C192.157 17.83 193.077 18.03 194.117 18.03C195.017 18.03 195.827 17.89 196.547 17.61C197.267 17.33 197.907 16.89 198.467 16.29L200.477 18.6C199.757 19.44 198.847 20.09 197.747 20.55C196.667 20.99 195.427 21.21 194.027 21.21Z" fill="white"/>
<path d="M205.658 21V4.98H209.408V11.49H217.478V4.98H221.228V21H217.478V14.67H209.408V21H205.658Z" fill="white"/>
<path d="M237.234 19.26V8.16H231.084L230.994 10.74C230.954 11.66 230.894 12.55 230.814 13.41C230.734 14.25 230.604 15.03 230.424 15.75C230.244 16.45 229.984 17.03 229.644 17.49C229.304 17.95 228.854 18.25 228.294 18.39L224.574 17.82C225.174 17.82 225.654 17.63 226.014 17.25C226.394 16.85 226.684 16.31 226.884 15.63C227.104 14.93 227.264 14.14 227.364 13.26C227.464 12.36 227.534 11.43 227.574 10.47L227.784 4.98H240.984V19.26H237.234ZM224.004 24.57V17.82H243.354V24.57H239.844V21H227.484V24.57H224.004Z" fill="white"/>
<path d="M256.423 21V17.76L256.213 17.07V11.4C256.213 10.3 255.883 9.45 255.223 8.85C254.563 8.23 253.563 7.92 252.223 7.92C251.323 7.92 250.433 8.06 249.553 8.34C248.693 8.62 247.963 9.01 247.363 9.51L245.893 6.78C246.753 6.12 247.773 5.63 248.953 5.31C250.153 4.97 251.393 4.8 252.673 4.8C254.993 4.8 256.783 5.36 258.043 6.48C259.323 7.58 259.963 9.29 259.963 11.61V21H256.423ZM251.383 21.21C250.183 21.21 249.133 21.01 248.233 20.61C247.333 20.19 246.633 19.62 246.133 18.9C245.653 18.16 245.413 17.33 245.413 16.41C245.413 15.51 245.623 14.7 246.043 13.98C246.483 13.26 247.193 12.69 248.173 12.27C249.153 11.85 250.453 11.64 252.073 11.64H256.723V14.13H252.343C251.063 14.13 250.203 14.34 249.763 14.76C249.323 15.16 249.103 15.66 249.103 16.26C249.103 16.94 249.373 17.48 249.913 17.88C250.453 18.28 251.203 18.48 252.163 18.48C253.083 18.48 253.903 18.27 254.623 17.85C255.363 17.43 255.893 16.81 256.213 15.99L256.843 18.24C256.483 19.18 255.833 19.91 254.893 20.43C253.973 20.95 252.803 21.21 251.383 21.21Z" fill="white"/>
<path d="M273.484 21.21C272.184 21.21 270.993 20.91 269.914 20.31C268.854 19.71 268.004 18.81 267.364 17.61C266.744 16.39 266.434 14.85 266.434 12.99C266.434 11.11 266.734 9.57 267.334 8.37C267.954 7.17 268.794 6.28 269.854 5.7C270.914 5.1 272.124 4.8 273.484 4.8C275.064 4.8 276.453 5.14 277.654 5.82C278.874 6.5 279.833 7.45 280.534 8.67C281.254 9.89 281.614 11.33 281.614 12.99C281.614 14.65 281.254 16.1 280.534 17.34C279.833 18.56 278.874 19.51 277.654 20.19C276.453 20.87 275.064 21.21 273.484 21.21ZM264.604 26.82V4.98H268.174V8.76L268.054 13.02L268.354 17.28V26.82H264.604ZM273.064 18C273.964 18 274.763 17.8 275.464 17.4C276.184 17 276.754 16.42 277.174 15.66C277.594 14.9 277.804 14.01 277.804 12.99C277.804 11.95 277.594 11.06 277.174 10.32C276.754 9.56 276.184 8.98 275.464 8.58C274.763 8.18 273.964 7.98 273.064 7.98C272.164 7.98 271.354 8.18 270.634 8.58C269.914 8.98 269.344 9.56 268.924 10.32C268.504 11.06 268.294 11.95 268.294 12.99C268.294 14.01 268.504 14.9 268.924 15.66C269.344 16.42 269.914 17 270.634 17.4C271.354 17.8 272.164 18 273.064 18Z" fill="white"/>
<path d="M293.386 10.26C295.446 10.26 297.016 10.72 298.096 11.64C299.176 12.56 299.716 13.86 299.716 15.54C299.716 17.28 299.116 18.64 297.916 19.62C296.716 20.58 295.026 21.05 292.846 21.03L285.346 21V4.98H289.096V10.23L293.386 10.26ZM292.516 18.27C293.616 18.29 294.456 18.06 295.036 17.58C295.616 17.1 295.906 16.4 295.906 15.48C295.906 14.56 295.616 13.9 295.036 13.5C294.476 13.08 293.636 12.86 292.516 12.84L289.096 12.81V18.24L292.516 18.27Z" fill="white"/>
</svg>
