<svg width="364" height="432" viewBox="0 0 364 432" fill="none" xmlns="http://www.w3.org/2000/svg">
<path d="M160.435 355.95L156.661 427.599C156.767 429.885 155.194 431.815 153.218 431.815H93.6123C91.6957 431.815 90.4061 429.624 91.0095 427.528C93.1036 420.304 98.7116 415.117 108.224 412.227L117.216 354.943C127.225 352.124 142.996 353.439 160.435 355.95Z" fill="#5B1D27"/>
<path d="M186.842 355.665L183.376 427.599C183.269 429.885 184.843 431.815 186.819 431.815H246.424C248.341 431.815 249.631 429.624 249.027 427.528C246.933 420.304 241.325 415.117 231.813 412.227L230.05 354.659C219.733 356.364 203.95 357.821 186.842 355.665Z" fill="#5B1D27"/>
<path d="M121.593 419.238C117.062 412.192 108.331 412.665 108.236 412.665L108.177 411.777C108.271 411.765 117.512 411.256 122.327 418.753L121.593 419.238Z" fill="#8C4A57"/>
<path d="M221.224 415.898L220.561 415.306C223.981 411.505 231.529 411.765 231.848 411.777L231.813 412.665C231.742 412.665 224.371 412.405 221.224 415.898Z" fill="#8C4A57"/>
<path d="M203.311 73.3066C218.313 80.8979 250.802 119.518 263.094 123.378C278.025 127.535 304.184 118.393 305.734 117.421L314.761 178.614C314.761 178.614 277.801 184.287 249.157 169.4C220.514 154.513 213.108 117.777 213.108 117.777L203.311 73.3066Z" fill="#377EC0"/>
<path d="M303.546 116.806C306.48 112.909 310.822 110.434 316.383 110.434C317.944 110.174 322.417 110.813 325.232 114.721C331.503 120.548 343.878 157.166 339.312 173.64C337.229 181.148 328.427 182.925 321.659 182.723C317.802 182.617 313.508 181.811 310.644 179.017C307.45 175.878 305.474 171.627 303.794 167.541C303.759 167.458 303.723 167.375 303.688 167.292C299.677 157.451 297.89 146.448 298.352 135.849C298.529 131.763 299.074 127.677 300.186 123.734C300.931 121.152 302.055 118.783 303.546 116.806Z" fill="#EBF3F9"/>
<path d="M332.934 175.677C319.222 179.218 307.805 118.369 319.802 115.787C331.065 114.662 341.973 172.929 332.934 175.677Z" fill="#5B1D27"/>
<path d="M259.332 133.907L258.752 133.812C259.45 129.655 260.799 126.185 262.858 123.213L263.343 123.556C261.332 126.446 260.018 129.833 259.332 133.907Z" fill="#561922"/>
<path d="M349.096 113.111C343.701 113.395 338.093 116.498 333.632 119.47C333.632 119.47 336.98 110.399 333.751 107.971C326.545 103.873 319.707 117.954 316.418 126.233C315.708 127.997 314.761 128.731 314.761 128.731C314.868 139.781 316.572 150.368 320.086 160.423C324.487 159.298 340.554 152.891 344.647 150.937C351.509 147.68 358.916 143.014 362.122 135.814C366.405 126.233 360.714 112.495 349.096 113.111Z" fill="#274F9D"/>
<path d="M137.175 76.2554C115.169 93.8422 108.828 123.722 92.3467 123.734C76.8597 122.999 54.8891 106.123 53.7178 104.714C53.9426 133.149 49.6834 163.088 31.4988 165.705C31.4988 165.705 59.3376 176.968 91.1991 171.804C123.061 166.641 141.576 134.073 141.576 134.073C141.576 134.073 147.599 66.4258 137.175 76.2554Z" fill="#377EC0"/>
<path d="M67.8797 113.324C65.9039 108.859 62.2126 105.472 56.7939 104.228C55.3386 103.624 50.8309 103.246 47.1987 106.419C39.7806 110.695 19.5137 143.582 20.259 160.672C20.6021 168.453 28.7893 172.171 35.4148 173.498C39.2008 174.256 43.5665 174.445 46.9739 172.361C50.7954 170.028 53.6704 166.321 56.2141 162.721C56.2614 162.65 56.3206 162.579 56.3679 162.507C62.4847 153.827 66.6966 143.511 68.6251 133.066C69.3705 129.039 69.749 124.942 69.5597 120.844C69.4533 118.144 68.8854 115.598 67.8797 113.324Z" fill="#EBF3F9"/>
<path d="M97.9545 136.974L97.3629 136.927C98.0491 129.063 93.7899 123.876 93.7544 123.829L94.204 123.45C94.2513 123.497 98.6644 128.862 97.9545 136.974Z" fill="#561922"/>
<path d="M26.0327 164.095C38.5974 170.62 63.372 113.893 52.2625 108.682C41.5434 105.058 17.8455 159.393 26.0327 164.095Z" fill="#5B1D27"/>
<path d="M46.2282 185.743L46.1572 185.104C45.613 180.556 43.2231 176.53 39.7802 173.533C37.2128 171.295 35.45 168.133 35.0477 164.485C34.4088 158.73 37.343 153.389 42.0636 150.688L30.824 56.1227C30.5282 53.5883 31.9124 51.3145 33.9356 51.0302L38.952 50.3078C41.0461 50.0118 43.022 51.9422 43.2941 54.5713L53.1258 149.445C58.3316 151.032 62.366 155.591 63.0049 161.359C63.4072 165.006 62.3897 168.476 60.3784 171.224C57.6809 174.919 56.2256 179.372 56.6989 183.92L56.7698 184.559C60.2127 186.039 62.7801 189.261 63.2297 193.252C63.6793 197.302 61.8218 201.068 58.7102 203.259L82.0768 426.77C82.3371 429.328 80.9055 431.567 78.8706 431.792C76.8238 432.017 74.9426 430.146 74.635 427.599L48.4762 204.408C44.9623 202.963 42.3239 199.694 41.8743 195.644C41.3893 191.653 43.1994 187.946 46.2282 185.743Z" fill="#ECAB5E"/>
<path d="M42.2413 191.392C42.0994 196.236 45.9918 201.98 53.268 201.127C60.5916 200.263 62.9696 193.347 61.8812 189.213C62.5674 190.433 63.0406 191.795 63.2063 193.275C63.644 197.243 61.8575 200.95 58.8524 203.152L48.2516 204.337C44.8324 202.856 42.2768 199.635 41.8391 195.668C41.6734 194.164 41.8391 192.731 42.2413 191.392Z" fill="#DC9446"/>
<path d="M36.8463 155.887C37.083 156.61 36.4204 171.555 49.8252 170.229C63.23 168.903 59.9054 154.028 59.9054 154.028C61.5618 156.053 62.6857 158.564 62.9933 161.37C63.3956 165.018 62.3781 168.488 60.3668 171.236C57.6693 174.931 56.214 179.384 56.6873 183.931L56.7346 184.369L46.2048 185.542L46.1575 185.104C45.6133 180.556 43.2234 176.529 39.7805 173.533C37.2131 171.295 35.4502 168.133 35.048 164.485C34.6931 161.37 35.3911 158.398 36.8463 155.887Z" fill="#DC9446"/>
<path d="M31.8891 82.011L34.0542 81.7742C34.1134 81.7623 34.1252 81.6794 34.0779 81.6439C32.0547 79.9622 30.6113 77.3568 30.2682 74.325L28.5409 58.7634C27.973 53.6236 30.5522 48.6732 34.8114 47.4297C40.1236 45.8783 45.3767 50.2839 46.0629 56.4422L47.8376 72.3709C48.1807 75.4027 47.3288 78.2687 45.7316 80.353C45.6961 80.4004 45.7316 80.4833 45.7908 80.4714L47.9559 80.2346C49.4466 80.0688 50.9729 81.0754 51.4343 82.7571C52.0258 84.9481 50.7717 87.0679 48.9261 87.2693L32.5043 89.1049C30.6586 89.3063 28.9668 87.518 29.0733 85.256C29.1324 83.4914 30.3984 82.1768 31.8891 82.011Z" fill="#EBF3F9"/>
<path d="M33.8648 81.7744C30.5047 79.3703 30.2681 74.3134 30.2681 74.3134L29.085 63.7021C30.9661 80.7085 48.5473 78.8611 46.6425 61.748L47.8256 72.3593C48.4053 77.5228 45.9445 80.4362 45.9445 80.4362L33.8648 81.7744Z" fill="#F4E6DC"/>
<path d="M46.6899 87.5063L34.7048 88.8446L35.0006 91.5211L46.962 90.1828L46.6899 87.5063Z" fill="#DC9446"/>
<path d="M60.6299 202.591C65.2268 198.11 65.324 190.747 60.8472 186.145C56.3703 181.544 49.0147 181.447 44.4178 185.928C39.821 190.409 39.7237 197.772 44.2006 202.374C48.6774 206.975 56.0331 207.072 60.6299 202.591Z" fill="#EBF3F9"/>
<path d="M63.431 190.255C62.8986 196.189 57.9294 200.843 51.86 200.843C46.8436 200.843 42.5843 197.657 40.9516 193.204C40.9161 193.548 40.9043 193.891 40.9043 194.246C40.9043 200.665 46.11 205.876 52.5226 205.876C58.9351 205.876 64.1408 200.665 64.1408 194.246C64.1408 192.837 63.8805 191.499 63.431 190.255Z" fill="#F4E6DC"/>
<path d="M51.0556 81.8809C50.677 83.6218 49.1981 84.9126 47.2933 85.1021L33.6282 86.4167C31.7234 86.5943 30.0078 85.718 29.2861 84.0955C28.6472 84.9363 28.8839 89.1998 32.4096 89.1169C32.4096 89.1169 48.3817 87.3286 48.9851 87.2576C49.908 87.1865 52.9367 85.6232 51.0556 81.8809Z" fill="#F4E6DC"/>
<path d="M42.1938 150.949L41.9216 150.416C45.5893 148.545 49.3753 148.059 53.185 148.983L53.043 149.563C49.3753 148.675 45.7313 149.149 42.1938 150.949Z" fill="#561922"/>
<path d="M67.5246 23.3533C68.8733 22.1572 67.8913 19.9307 66.1048 20.1084L44.4182 22.2875C43.6137 22.3704 42.8565 21.9204 42.5252 21.1861L33.7582 1.2071C33.0365 -0.450906 30.623 -0.20221 30.2325 1.56238L25.5947 22.8796C25.4291 23.6731 24.7665 24.2534 23.962 24.3363L2.27535 26.5154C0.477009 26.693 -0.0317332 29.0735 1.51816 29.9735L20.3416 40.9756C21.0397 41.3783 21.3946 42.1954 21.2171 42.9771L16.5793 64.2943C16.2007 66.0589 18.2948 67.2787 19.6318 66.0826L35.8997 51.5632C36.5031 51.0302 37.3786 50.9355 38.0766 51.35L56.9001 62.352C58.4618 63.264 60.272 61.6415 59.5385 59.9953L50.7715 40.0163C50.4521 39.2821 50.6296 38.4175 51.233 37.8728L67.5246 23.3533ZM46.8672 29.0616L40.1944 35.0186C40.1589 35.0423 40.1471 35.0897 40.1708 35.137L43.7675 43.3323C43.8029 43.4271 43.7083 43.51 43.6255 43.4626L35.8997 38.9505C35.8642 38.9268 35.8169 38.9386 35.7814 38.9623L29.1086 44.9193C29.0376 44.9903 28.9193 44.9193 28.9429 44.8245L30.8478 36.0726C30.8596 36.0253 30.8359 35.9897 30.8004 35.966L23.0746 31.4539C22.9918 31.4065 23.0155 31.2763 23.1101 31.2644L32.0072 30.3762C32.0546 30.3762 32.09 30.3407 32.09 30.2933L33.9949 21.5414C34.0185 21.4466 34.1487 21.4348 34.1842 21.5177L37.7809 29.713C37.7927 29.7485 37.84 29.7722 37.8873 29.7722L46.7844 28.884C46.8909 28.8721 46.9501 29.0024 46.8672 29.0616Z" fill="#ECAB5E"/>
<path d="M23.3702 56.2768C23.2874 56.2768 23.2046 56.2531 23.1217 56.2057C22.9443 56.0991 22.8496 55.8859 22.8969 55.6846L26.4936 39.1164L11.8584 30.5658C11.6691 30.4592 11.5863 30.246 11.6218 30.0447C11.6691 29.8315 11.8348 29.6894 12.0477 29.6657L28.9072 27.9722L32.5039 11.4039C32.5512 11.1908 32.7169 11.0368 32.9298 11.025C33.1428 11.0013 33.3439 11.1197 33.4267 11.3092L40.2415 26.8353L57.101 25.1417C57.314 25.118 57.5151 25.2365 57.5979 25.426C57.6807 25.6154 57.6334 25.8405 57.4796 25.9826L44.832 37.2689L51.6468 52.7949C51.7296 52.9844 51.6823 53.2213 51.5285 53.3516C51.3747 53.4937 51.1381 53.5174 50.9606 53.4108L36.3254 44.8602L23.6778 56.1465C23.6068 56.2412 23.4885 56.2768 23.3702 56.2768ZM12.4382 30.2105L26.8604 38.6426C27.0497 38.7492 27.1325 38.9624 27.097 39.1637L23.5477 55.4951L36.0178 44.3628C36.1716 44.2207 36.4082 44.197 36.5857 44.3036L51.0079 52.7357L44.2878 37.4347C44.205 37.2452 44.2523 37.0083 44.4061 36.8781L56.8762 25.7457L40.2534 27.4156C40.0522 27.4393 39.8393 27.3208 39.7564 27.1313L33.0363 11.8303L29.4869 28.1617C29.4396 28.363 29.274 28.517 29.061 28.5406L12.4382 30.2105Z" fill="#561922"/>
<path d="M34.835 100.771C34.835 100.771 47.1986 98.7336 50.9964 106.076C54.7824 113.419 57.7639 130.994 56.3678 134.286C54.9717 137.578 41.1765 143.547 41.1765 143.547L41.5314 146.567C41.5314 146.567 29.3808 145.738 27.0619 126.055C25.8669 114.224 26.6596 104.229 34.835 100.771Z" fill="#274F9D"/>
<path d="M57.4798 105.247C54.9716 101.517 51.7654 100.593 48.1213 101.316L48.2751 103.116C48.2751 103.116 49.7659 120.537 54.6877 118.358C61.7864 116.048 57.4798 105.247 57.4798 105.247Z" fill="#274F9D"/>
<path d="M53.5639 118.713C51.2568 118.713 49.6596 117.362 48.6658 116.107C46.3114 113.123 45.6015 108.338 46.5717 106.36L47.1041 106.621C46.2049 108.445 46.9148 112.921 49.139 115.74C50.2157 117.102 52.085 118.606 54.8772 117.966L55.0073 118.547C54.4986 118.665 54.0135 118.713 53.5639 118.713Z" fill="#561922"/>
<path d="M216.231 86.0145C210.126 76.1494 201.489 70.145 190.817 70.145C190.817 70.145 180.761 70.145 175.685 70.145C175.212 70.145 174.94 70.145 174.94 70.145H172.491H170.042C170.042 70.145 169.77 70.145 169.296 70.145C164.233 70.145 154.176 70.145 154.164 70.145C143.493 70.145 134.868 76.1494 128.751 86.0145C120.114 100.037 75.9954 309.585 72.0083 362.558C75.605 362.819 150.627 386.659 271.459 361.599C266.963 287.462 224.868 100.037 216.231 86.0145Z" fill="#377EC0"/>
<path d="M72.789 361.658C138.878 374.638 204.34 368.03 270.749 356.199C271.897 355.997 272.973 356.874 273.139 358.153L276.085 380.417C276.239 381.578 275.612 382.774 274.571 382.999C206.162 398.052 138.085 397.815 70.3754 382.976C69.3697 382.751 68.7545 381.625 68.8492 380.5L70.3399 363.707C70.4701 362.357 71.594 361.421 72.789 361.658Z" fill="#EBF3F9"/>
<path d="M219.236 81.8812C215.97 78.056 196.366 70.062 196.366 70.062L140.996 71.4713C140.996 71.4713 125.887 80.4246 123.178 85.4933C120.611 90.2542 133.779 144.814 160.482 151.21C165.404 152.382 181.861 151.731 185.848 150.771C210.173 145.88 222.501 85.7065 219.236 81.8812Z" fill="#EBF3F9"/>
<path d="M144.818 364.43C118.99 364.43 94.5348 361.966 71.9727 357.111L72.1028 356.53C96.972 361.895 124.184 364.323 152.946 363.766L155.974 150.476L156.566 150.487L153.525 364.347H153.241C150.414 364.406 147.598 364.43 144.818 364.43Z" fill="#561922"/>
<path d="M198.815 362.511L198.803 362.203L187.824 150.499L188.415 150.463L199.371 361.871C222.17 359.858 244.803 356.696 270.524 351.935L270.63 352.515C244.767 357.3 222.04 360.474 199.111 362.487L198.815 362.511Z" fill="#561922"/>
<path d="M160.435 141.096L158.979 377.883L195.727 376.118L183.375 141.096H160.435Z" fill="#EBF3F9"/>
<path d="M172.433 136.24L171.841 136.252L177.073 394.199L177.665 394.187L172.433 136.24Z" fill="#561922"/>
<path d="M114.039 132.793L107.669 166.216L108.251 166.327L114.62 132.904L114.039 132.793Z" fill="#561922"/>
<path d="M232.803 138.851L232.221 138.957L236.121 160.335L236.703 160.228L232.803 138.851Z" fill="#561922"/>
<path d="M170.929 110.73C184.511 110.73 207.606 104.904 207.606 91.3081C213.841 86.8078 207.76 60.5165 198.744 47.134C197.183 43.4746 195.751 40.8928 195.065 36.9728C193.03 25.3905 183.056 15.3003 170.929 15.3003C158.92 15.3003 149.503 23.5548 147.349 34.9714C146.557 39.1756 144.593 43.7351 142.972 47.6907C133.424 61.8903 127.84 81.5851 132.549 89.0461C132.549 102.642 157.347 110.73 170.929 110.73Z" fill="#EBF3F9"/>
<path d="M170.929 82.0348C182.476 82.0348 191.918 72.5842 191.918 61.0255V37.9673C191.918 26.4087 182.476 16.958 170.929 16.958C159.382 16.958 149.94 26.4087 149.94 37.9673V61.0255C149.929 72.5842 159.382 82.0348 170.929 82.0348Z" fill="#F7B79C"/>
<path d="M188.345 41.9823C190.557 40.1704 193.704 39.0216 196.295 40.7744C198.709 42.4087 200.282 45.6418 199.348 48.567C198.78 50.3434 197.467 51.5159 195.869 52.3212C193.337 53.5884 188.581 54.4766 186.499 51.8712C186.203 51.504 186.002 51.0658 185.907 50.604C184.795 44.8957 188.333 41.9942 188.345 41.9823Z" fill="#F7B79C"/>
<path d="M153.502 41.9823C151.289 40.1704 148.142 39.0216 145.551 40.7744C143.137 42.4087 141.564 45.6418 142.499 48.567C143.066 50.3434 144.38 51.5159 145.977 52.3212C148.509 53.5884 153.265 54.4766 155.347 51.8712C155.643 51.504 155.844 51.0658 155.939 50.604C157.063 44.8957 153.513 41.9942 153.502 41.9823Z" fill="#F7B79C"/>
<path d="M189.327 27.8892L186.475 52.629C190.557 56.5964 192.415 56.0871 193.266 53.5409C193.266 53.5409 189.22 42.0296 193.917 40.0874C198.614 38.1333 189.327 27.8892 189.327 27.8892Z" fill="#EBF3F9"/>
<path d="M152.496 27.8892L155.347 52.629C152.886 54.8555 150.591 55.6845 148.556 54.2633C148.556 54.2633 152.602 42.0296 147.905 40.0874C144.522 38.1806 152.496 27.8892 152.496 27.8892Z" fill="#EBF3F9"/>
<path d="M139.422 113.371H203.512C203.879 112.199 204.317 111.05 204.814 109.925C205.003 110.47 205.192 111.027 205.381 111.571C207.251 106.443 208.398 101.055 208.777 95.5952C209.156 96.3531 209.534 97.1111 209.925 97.869C211.486 81.1824 205.949 66.8761 205.949 66.8761C205.949 66.8761 200.744 68.0723 197.727 63.5956C196.638 61.9732 195.727 60.4454 194.52 59.1545C194.154 58.3611 193.751 57.6623 193.29 57.1886C193.29 57.1886 183.269 41.0823 170.964 47.288C156.826 40.8809 148.639 57.1886 148.639 57.1886C148.603 57.236 148.568 57.3308 148.544 57.39C148.532 57.4255 148.521 57.461 148.497 57.4965C147.716 57.8992 146.947 58.3137 146.213 58.7874C140.712 62.3403 136.417 67.0182 136.417 67.0182C136.417 67.0182 132.134 79.2283 133.838 94.0083C134.37 92.516 135.187 91.1304 136.204 89.9343C134.867 97.8454 136.05 106.135 139.422 113.371Z" fill="#EBF3F9"/>
<path d="M170.846 39.2704C170.503 39.8981 170.184 40.5376 169.876 41.1771C169.58 41.8166 169.308 42.4798 169.166 43.143C168.989 43.8299 169.166 44.2207 169.663 44.6471C170.136 45.0379 170.775 45.334 171.367 45.5471L170.988 46.6248C170.255 46.3169 169.604 45.938 169.013 45.3458C168.729 45.0497 168.456 44.6826 168.35 44.2207C168.244 43.747 168.374 43.297 168.492 42.9535C168.764 42.2311 169.131 41.6153 169.521 40.9876C169.912 40.3718 170.338 39.7915 170.787 39.2349L170.846 39.2704Z" fill="#E18E71"/>
<path d="M149.491 55.1396C150.686 57.07 152.366 58.8109 154.46 59.6399C154.98 59.8176 155.536 59.9716 156.057 59.9952C156.566 59.9952 157.098 59.8058 157.607 59.5926C158.624 59.1307 159.571 58.503 160.482 57.828C162.304 56.466 164.008 54.9383 165.664 53.3514C166.492 52.5579 167.297 51.7526 168.101 50.9236L169.296 49.6801L169.888 49.0524L170.183 48.7326L170.621 48.2471L171.059 48.7326L171.355 49.0524L171.946 49.6801L173.141 50.9236C173.946 51.7407 174.75 52.5579 175.579 53.3514C177.235 54.9265 178.939 56.466 180.761 57.828C181.672 58.503 182.63 59.1307 183.636 59.5926C184.144 59.8058 184.677 59.9952 185.185 59.9952C185.706 59.9834 186.262 59.8176 186.783 59.6399C188.865 58.8109 190.545 57.07 191.752 55.1396L191.823 55.1752C190.711 57.1885 189.113 59.036 186.948 60.0426C186.392 60.2676 185.836 60.4571 185.209 60.5163C184.558 60.54 183.979 60.3624 183.411 60.161C182.299 59.7228 181.293 59.1189 180.323 58.4793C178.383 57.1766 176.584 55.7081 174.821 54.1922C173.946 53.4343 173.082 52.6526 172.23 51.871L170.964 50.6749L170.633 50.3551L170.302 50.6749L169.036 51.871C168.184 52.6645 167.332 53.4343 166.445 54.1922C164.694 55.7081 162.884 57.1766 160.943 58.4793C159.973 59.1189 158.967 59.7347 157.855 60.161C157.299 60.3624 156.708 60.5519 156.057 60.5163C155.418 60.4571 154.874 60.2676 154.318 60.0426C152.141 59.036 150.555 57.1885 149.443 55.1752L149.491 55.1396Z" fill="#E7D5C9"/>
<path d="M178.265 35.0186C178.182 35.1015 178.099 35.1844 178.004 35.2554C179.696 35.3502 181.424 35.4449 182.95 36.0015C182.678 35.9897 182.406 36.0371 182.169 36.1436C182.169 36.1436 184.985 37.3516 185.848 38.9386C185.458 38.7728 185.032 38.6662 184.582 38.6188C185.032 39.3057 184.961 40.4071 184.961 40.4071C184.961 40.4071 183.719 40.0163 182.429 40.1228C182.417 40.3479 182.453 40.5847 182.512 40.7979C180.95 39.9807 179.069 39.5425 177.188 39.5899C177.318 39.4952 177.448 39.4004 177.59 39.3057C176.017 39.3175 175.047 39.6491 174.088 40.0281C174.195 39.7439 174.431 39.4123 174.36 38.9149C173.402 38.8201 172.645 39.1636 172.645 39.1636C172.645 39.1636 173.319 35.7173 178.265 35.0186Z" fill="#EBF3F9"/>
<path d="M162.032 34.9712C162.115 35.0541 162.198 35.137 162.292 35.2081C160.6 35.3028 158.873 35.3975 157.347 35.9542C157.619 35.9423 157.891 35.9897 158.128 36.0963C158.128 36.0963 155.312 37.3043 154.448 38.8912C154.839 38.7254 155.265 38.6188 155.714 38.5714C155.265 39.2583 155.336 40.3597 155.336 40.3597C155.336 40.3597 156.578 39.9689 157.867 40.0755C157.879 40.3005 157.844 40.5374 157.785 40.7505C159.346 39.9334 161.228 39.4952 163.109 39.5426C162.979 39.4478 162.848 39.3531 162.706 39.2583C164.28 39.2702 165.25 39.6018 166.208 39.9807C166.102 39.6965 165.865 39.3649 165.936 38.8675C166.895 38.7728 167.652 39.1162 167.652 39.1162C167.652 39.1162 166.978 35.6818 162.032 34.9712Z" fill="#EBF3F9"/>
<path d="M206.387 66.7339C206.908 73.437 206.446 80.2348 204.991 86.8195C204.293 90.1236 203.276 93.3449 202.152 96.5188C200.992 99.6809 199.608 102.76 198.07 105.768C194.97 111.761 191.172 117.362 186.842 122.526C182.488 127.666 177.697 132.438 172.278 136.5L172.124 136.619L171.958 136.524C165.972 132.971 160.565 128.566 155.667 123.663C150.792 118.736 146.486 113.217 143.09 107.154C139.695 101.102 137.257 94.4937 136.039 87.6485C135.424 84.2259 135.163 80.7559 135.163 77.2859C135.199 73.8159 135.554 70.3578 136.181 66.9589C135.364 73.8159 135.364 80.7796 136.63 87.5537C137.837 94.3279 140.251 100.877 143.611 106.87C146.971 112.886 151.242 118.357 156.081 123.248C160.944 128.116 166.339 132.509 172.242 136.015L171.935 136.027C177.271 132.024 182.062 127.263 186.381 122.159C190.675 117.031 194.45 111.453 197.526 105.508C199.04 102.523 200.413 99.4677 201.572 96.3293C202.684 93.1791 203.69 89.9815 204.4 86.701C205.938 80.1638 206.47 73.4488 206.387 66.7339Z" fill="#E7D5C9"/>
<path d="M186.783 49.9289C188.084 51.0066 189.409 52.3212 190.734 53.7542C189.622 51.6935 188.392 49.7986 186.984 48.1406L186.783 49.9289Z" fill="#E7D5C9"/>
<path d="M154.981 49.3723C153.679 50.45 152.354 51.7645 151.029 53.1975C152.141 51.1368 153.372 49.242 154.78 47.584L154.981 49.3723Z" fill="#E7D5C9"/>
<path d="M161.783 42.2308C163.546 42.219 164.292 43.6401 164.292 43.6401C164.008 42.515 162.99 41.686 161.783 41.686C160.577 41.686 159.559 42.515 159.275 43.6401C159.275 43.652 160.021 42.2427 161.783 42.2308Z" fill="#5B1D27"/>
<path d="M164.292 43.9481C164.185 43.9481 164.079 43.8889 164.031 43.7941C164.008 43.7468 163.333 42.5388 161.795 42.5388H161.783C160.234 42.5506 159.559 43.7468 159.535 43.7941C159.464 43.9244 159.311 43.9836 159.169 43.9244C159.027 43.8652 158.956 43.7231 158.991 43.581C159.322 42.3019 160.47 41.4019 161.783 41.4019C163.097 41.4019 164.244 42.3019 164.576 43.581C164.611 43.7231 164.54 43.877 164.398 43.9244C164.363 43.9362 164.327 43.9481 164.292 43.9481Z" fill="#5B1D27"/>
<path d="M179.436 42.2308C181.199 42.219 181.944 43.6401 181.944 43.6401C181.66 42.515 180.643 41.686 179.436 41.686C178.229 41.686 177.212 42.515 176.928 43.6401C176.928 43.652 177.673 42.2427 179.436 42.2308Z" fill="#5B1D27"/>
<path d="M181.944 43.9481C181.838 43.9481 181.731 43.8889 181.684 43.7941C181.66 43.7468 180.998 42.5388 179.448 42.5388H179.436C177.886 42.5506 177.212 43.7468 177.188 43.7941C177.117 43.9244 176.951 43.9836 176.821 43.9244C176.679 43.8652 176.608 43.7231 176.644 43.581C176.975 42.3019 178.123 41.4019 179.436 41.4019C180.749 41.4019 181.897 42.3019 182.228 43.581C182.264 43.7231 182.193 43.877 182.051 43.9244C182.015 43.9362 181.98 43.9481 181.944 43.9481Z" fill="#5B1D27"/>
<path d="M187.789 11.8539C181.459 7.18781 171.9 4.84291 163.168 6.34696C161.086 6.70225 159.086 7.31808 157.335 8.25367C154.567 9.71035 152.295 11.6881 150.781 13.962C149.266 16.2239 147.717 19.3031 149.42 21.7309C150.26 22.927 151.775 23.756 153.325 24.4311C156.129 25.6391 159.193 26.4325 162.304 27.0839C166.848 28.0313 171.533 28.6945 176.242 28.6708C180.95 28.6472 185.718 27.9366 189.883 26.2904C191.137 25.793 192.403 25.1654 193.255 24.3008C194.237 23.2942 195.219 23.7087 194.828 22.5599C194.272 18.3675 191.622 14.6844 187.789 11.8539Z" fill="#274F9D"/>
<path d="M148.935 34.6515C148.367 34.8055 147.752 34.9713 147.184 34.7936C146.379 34.5449 145.942 33.7041 145.646 32.9343C144.179 29.0972 143.457 24.5021 144.676 20.5229C145.196 18.8294 146.214 16.7806 147.917 16.0108C149.858 15.1225 152.046 14.8265 154.176 14.7554C157.406 14.6488 160.66 14.6844 163.878 14.8028C168.681 14.9804 173.473 15.4305 178.229 16.1647C183.269 16.9345 188.285 17.9175 193.053 19.7057C193.988 20.061 194.923 20.44 195.715 21.0322C197.265 22.1691 197.774 24.0876 198.2 25.8641C199.016 29.2985 198.886 32.9461 197.833 36.3095C196.544 40.4072 193.503 38.1925 190.687 37.0675C187.481 35.7884 184.168 34.7581 180.796 34.0001C174.053 32.4842 167.06 32.0105 160.163 32.6382C156.365 32.9698 152.603 33.6449 148.935 34.6515Z" fill="#EBF3F9"/>
<path d="M147.811 43.3795C146.616 43.4269 145.445 44.4336 145.386 45.5113C145.35 46.0442 145.587 46.5653 145.942 47.0035C146.285 47.4535 146.782 47.8088 147.267 48.1641L146.557 49.1115C146.048 48.6496 145.539 48.1759 145.161 47.5482C144.782 46.9561 144.522 46.1745 144.676 45.4284C144.818 44.6823 145.315 44.0783 145.883 43.6993C146.45 43.3203 147.137 43.0953 147.823 43.1664L147.811 43.3795Z" fill="#E18E71"/>
<path d="M193.551 43.1546C194.237 43.0836 194.923 43.3086 195.491 43.6876C196.059 44.0665 196.556 44.6705 196.698 45.4166C196.851 46.1746 196.591 46.9444 196.213 47.5365C195.846 48.1642 195.325 48.6379 194.816 49.0998L194.107 48.1524C194.592 47.8089 195.089 47.4536 195.432 46.9918C195.787 46.5536 196.035 46.0325 195.988 45.4995C195.929 44.4218 194.757 43.4034 193.562 43.3678L193.551 43.1546Z" fill="#E18E71"/>
<path d="M143.031 82.272C138.109 70.6778 141.907 54.4886 141.943 54.3228L142.522 54.4649C142.487 54.6307 138.725 70.6304 143.575 82.047L143.031 82.272Z" fill="#E7D5C9"/>
<path d="M189.693 101.694L189.268 101.291C189.35 101.197 197.845 92.1487 200.223 80.5781L200.803 80.6966C198.389 92.4447 189.788 101.611 189.693 101.694Z" fill="#E7D5C9"/>
<path d="M147.752 35.196C147.456 35.196 147.279 35.1249 147.255 35.1131L147.492 34.5683C147.503 34.5683 147.728 34.6631 148.13 34.5565C148.663 34.4262 153.1 33.3604 153.1 33.3604L153.241 33.9407C153.241 33.9407 148.805 35.0065 148.272 35.1368C148.071 35.1842 147.894 35.196 147.752 35.196Z" fill="#E7D5C9"/>
<path d="M195.301 38.9739C194.911 38.9739 194.485 38.9029 194 38.7608L188.274 36.4632L188.498 35.9185L194.201 38.2041C194.651 38.3344 195.065 38.4055 195.42 38.3818L195.443 38.9739C195.384 38.9739 195.349 38.9739 195.301 38.9739Z" fill="#E7D5C9"/>
<path d="M170.598 53.458C169.569 53.458 168.539 53.0672 167.723 52.2974L168.125 51.8711C169.521 53.1975 171.651 53.1975 173.071 51.8711L173.473 52.3093C172.657 53.0672 171.627 53.458 170.598 53.458Z" fill="#E7D5C9"/>
</svg>
